<svg width="40" height="40" viewBox="0 0 40 40" fill="none" xmlns="http://www.w3.org/2000/svg">
<rect width="40" height="40" rx="10" fill="#ED1D24"/>
<g clip-path="url(#clip0_429_2309)">
<path d="M20.2924 7.01928C20.2129 7.03709 20.1318 7.04683 20.0503 7.04835C19.4138 7.12967 18.7893 7.28582 18.1899 7.51353L17.9576 7.6085C17.6226 7.74351 17.2966 7.89953 16.9815 8.07562C16.9275 8.10991 16.8691 8.13665 16.8078 8.15509C16.759 8.16672 16.7199 8.18998 16.7199 8.20355C16.7199 8.21711 16.6926 8.2365 16.6633 8.25006C16.607 8.2726 16.5533 8.3012 16.5032 8.33535C16.4469 8.37206 16.3882 8.40508 16.3275 8.4342C16.2613 8.46482 16.1991 8.50321 16.1421 8.54855C16.1032 8.58206 16.0598 8.61011 16.0132 8.6319C15.5067 8.94166 15.0244 9.28895 14.5706 9.6708C14.317 9.89688 14.0832 10.1439 13.8717 10.4093C13.8542 10.446 13.8304 10.4794 13.8014 10.5081C13.6198 10.7475 13.4566 11.0002 13.3134 11.264C13.2782 11.3454 13.204 11.4908 13.1572 11.5897C12.9929 11.934 12.9203 12.3144 12.9463 12.6945C12.9416 12.8647 12.974 13.0339 13.0414 13.1905C13.1088 13.3471 13.2096 13.4874 13.3368 13.6016C13.4812 13.7461 13.6534 13.8603 13.8433 13.9372C14.0331 14.0142 14.2367 14.0523 14.4417 14.0493C14.7553 14.0692 15.0699 14.0338 15.371 13.9446C15.4783 13.9136 15.6247 13.8787 15.695 13.8574C15.7578 13.844 15.8188 13.8232 15.8766 13.7954C15.9527 13.7566 16.3802 13.5647 16.3998 13.5647C16.8863 13.3116 17.3558 13.0274 17.8053 12.7138C18.2309 12.4309 18.6057 12.1847 18.6389 12.1673C18.6721 12.1498 18.8712 12.0296 19.0859 11.9017C19.3007 11.7738 19.5662 11.6246 19.6716 11.5703L20.0191 11.3881C20.103 11.3493 20.2573 11.2776 20.3666 11.2369C20.4759 11.1962 20.6125 11.1381 20.6653 11.1148C20.718 11.0915 20.8019 11.0566 20.8468 11.0373C21.076 10.9655 21.3135 10.9231 21.5535 10.9113C21.8255 10.8755 22.1015 10.9356 22.3334 11.0812C22.5653 11.2268 22.7384 11.4486 22.8224 11.7079C22.8855 11.9156 22.9067 12.1336 22.8849 12.3495C22.9069 12.706 22.851 13.0631 22.7209 13.3961L22.637 13.5899C22.3961 14.1138 22.0947 14.6081 21.739 15.063C21.2315 15.6968 20.6641 16.281 20.0445 16.8074L19.5974 17.1757C19.4569 17.29 19.2948 17.4044 19.1172 17.5246C19.043 17.5692 18.922 17.6486 18.8517 17.701C18.5114 17.9111 18.1573 18.0982 17.7917 18.2611L17.5203 18.3793C17.4662 18.4081 17.4073 18.4271 17.3466 18.4356C17.2893 18.4411 17.2329 18.4535 17.1787 18.4724C17.1309 18.4913 17.0792 18.4983 17.0281 18.493C16.977 18.4876 16.928 18.4699 16.8853 18.4414C16.8426 18.413 16.8075 18.3746 16.7831 18.3297C16.7587 18.2848 16.7458 18.2346 16.7453 18.1836C16.7453 17.9142 16.8741 17.7417 17.6882 16.9392C18.5686 16.0728 18.6643 15.943 18.6643 15.6154C18.6643 15.2878 18.5022 15.0456 18.1372 14.8614C17.9847 14.7807 17.8108 14.7489 17.6394 14.7703C17.3759 14.7559 17.1145 14.8237 16.8917 14.9642C16.839 14.9971 16.755 15.0397 16.7101 15.063C16.6749 15.0795 16.6416 15.0997 16.6106 15.1231C16.6106 15.1231 16.5344 15.1812 16.4603 15.2374C16.2176 15.4372 15.9971 15.662 15.8024 15.9081C15.647 16.1228 15.5105 16.3505 15.3944 16.5884C15.2002 16.9845 15.0862 17.4145 15.0586 17.8541C15.0586 18.5615 15.4295 19.1275 16.0035 19.2884C16.3742 19.3351 16.7494 19.3351 17.1201 19.2884C17.4265 19.2203 17.7273 19.1296 18.0201 19.017C18.0431 18.9995 18.0711 18.9893 18.1001 18.988C18.5872 18.7869 19.0578 18.5484 19.5076 18.2747C19.5838 18.2243 19.6696 18.1681 19.7028 18.1487C19.736 18.1293 19.8981 18.0382 20.0503 17.9394C20.2026 17.8405 20.349 17.7455 20.3588 17.7455C20.4381 17.6811 20.5209 17.6209 20.6067 17.5653L20.9386 17.3385C20.9952 17.2978 21.1494 17.1796 21.286 17.071C22.0452 16.4875 22.7384 15.824 23.3534 15.0921C23.4256 15.0049 23.492 14.9215 23.5018 14.9118C23.6477 14.7251 23.7839 14.531 23.9098 14.3303C23.9949 14.2007 24.073 14.0668 24.144 13.9291C24.2065 13.8109 24.2944 13.65 24.3393 13.5667C24.3842 13.4833 24.474 13.2721 24.5462 13.0899C24.6184 12.9077 24.6867 12.7313 24.6985 12.7022C24.8349 12.2898 24.9349 11.8663 24.9971 11.4365C25.0622 10.8585 25.0218 10.2735 24.8781 9.70956C24.8268 9.54539 24.7615 9.38587 24.6828 9.23275C24.4219 8.66868 24.0184 8.18124 23.5115 7.81783C23.4432 7.7745 23.378 7.72658 23.3163 7.6744C22.981 7.46844 22.6201 7.30684 22.2426 7.19372C22.0373 7.13506 21.8287 7.08846 21.6179 7.05416C21.4051 7.02121 21.0206 6.99989 20.718 6.99989H20.5637C20.4729 6.99711 20.3819 7.00361 20.2924 7.01928ZM14.1157 24.9752C14.0063 25.002 13.8955 25.0227 13.7838 25.0372C13.6589 25.0527 13.4266 25.0857 13.2704 25.1089C13.166 25.1196 13.0627 25.1397 12.962 25.169C12.9327 25.1942 12.9288 30.7899 12.962 30.8306C13.1923 30.8612 13.4248 30.8716 13.6569 30.8617C14.3324 30.8617 14.3363 30.8617 14.3539 30.7861C14.3539 30.7454 14.3656 29.4177 14.3539 27.8361C14.3539 24.9849 14.3539 24.9578 14.2777 24.9519C14.2215 24.9504 14.1654 24.9583 14.1118 24.9752H14.1157ZM13.3036 22.6008C13.1246 22.6697 12.9717 22.7924 12.8663 22.9517C12.7609 23.1125 12.757 23.1261 12.757 23.4614V23.8103L12.8839 23.9809C12.9909 24.1502 13.157 24.2744 13.3504 24.3298C13.491 24.3779 13.6412 24.3918 13.7883 24.3702C13.9355 24.3486 14.0752 24.2922 14.1957 24.2057C14.5491 23.9809 14.6721 23.4091 14.4573 22.9885C14.3837 22.841 14.2638 22.7213 14.1157 22.6474C13.8615 22.5271 13.57 22.5104 13.3036 22.6008ZM25.4266 25.9618C25.5652 25.9967 25.8561 26.2312 25.8561 26.3029C25.8658 26.348 25.8829 26.3913 25.9069 26.4308C25.983 26.5801 26.0416 27.0666 25.9888 27.1286C25.9361 27.1906 25.8268 27.177 25.1572 27.177H24.3744L24.3549 27.0956C24.3365 26.8178 24.4046 26.541 24.5501 26.3029C24.6587 26.135 24.8242 26.0113 25.0167 25.954C25.0918 25.9295 25.17 25.9151 25.249 25.9114C25.2685 25.9114 25.3485 25.9424 25.4247 25.9618H25.4266ZM24.7141 24.9151C24.6351 24.9237 24.558 24.9447 24.4857 24.9771C24.4633 24.9961 24.4351 25.0071 24.4056 25.0081C24.3143 25.0319 24.2264 25.0671 24.144 25.1128C23.8203 25.2995 23.5428 25.5558 23.3319 25.8629C23.1905 26.0864 23.0764 26.3258 22.9923 26.5762C22.9796 26.6317 22.9627 26.6861 22.9415 26.739C22.9298 26.7758 22.8888 26.9173 22.8556 27.053C22.7678 27.6578 22.7678 28.272 22.8556 28.8769C22.92 29.1465 23.0184 29.407 23.1484 29.6522C23.1528 29.6527 23.157 29.654 23.1609 29.6561C23.1647 29.6582 23.1681 29.6611 23.1708 29.6645C23.1736 29.6679 23.1756 29.6719 23.1767 29.6761C23.1779 29.6803 23.1783 29.6847 23.1777 29.689C23.1777 29.8131 23.5681 30.3093 23.8493 30.5341C24.0341 30.6627 24.2357 30.7658 24.4486 30.8403C24.7516 30.9295 25.0641 30.9829 25.3798 30.9993C25.8502 30.9993 26.6975 30.8054 26.9786 30.6116C27.0401 30.5726 27.1055 30.5401 27.1738 30.5147C27.3012 30.4673 27.4179 30.3955 27.5174 30.3034C27.4304 30.0203 27.2986 29.7527 27.127 29.5107C27.0793 29.5221 27.0351 29.5447 26.9981 29.5766C26.9613 29.6088 26.9171 29.6314 26.8693 29.6425C26.8295 29.6486 26.7918 29.6646 26.76 29.689C26.6331 29.7474 26.5027 29.7979 26.3695 29.8402C26.1211 29.9357 25.854 29.9735 25.5886 29.9507C25.1787 29.9507 25.1084 29.9507 24.9757 29.8828C24.513 29.6619 24.2475 29.1075 24.2475 28.3574C24.241 28.2574 24.241 28.157 24.2475 28.057C24.2475 28.057 24.9854 28.0415 25.8776 28.0318L27.4998 28.0144V27.6849C27.4803 27.0414 27.3046 26.173 27.1582 25.9753C27.1445 25.9559 27.0996 25.8745 27.0567 25.7815C26.8366 25.3975 26.478 25.1107 26.0533 24.9791C25.6078 24.8611 25.1427 24.8354 24.6867 24.9035L24.7141 24.9151ZM17.5105 24.9151C16.8664 25.0611 16.2738 25.3764 15.7946 25.828L15.656 25.954V30.8113C15.656 30.8636 15.7048 30.8675 16.3783 30.8597H17.0967L17.1064 28.5687V26.2796L17.2333 26.1808C17.3536 26.0784 17.4948 26.003 17.6472 25.9598C17.9284 25.8719 18.2241 25.839 18.5179 25.8629C18.6096 25.8768 18.7026 25.88 18.7951 25.8726C18.856 25.7985 18.9023 25.7137 18.9317 25.6226C18.9805 25.4908 19.0606 25.3202 19.0996 25.2349C19.2089 25.0275 19.1992 24.9752 19.0528 24.9422L18.7677 24.8763C18.353 24.822 17.9323 24.8311 17.5203 24.9035L17.5105 24.9151ZM10.2231 28.0008C10.2552 28.2962 10.2663 28.5935 10.2562 28.8905C10.2562 29.8247 10.2699 29.7665 10.0239 29.8945C9.85927 29.9544 9.68288 29.9756 9.50857 29.9565H9.10642L8.94243 29.8441C8.85384 29.786 8.77537 29.714 8.71012 29.6309C8.5893 29.4322 8.5279 29.2035 8.53308 28.9715C8.53827 28.7395 8.60983 28.5138 8.73941 28.3206C8.85948 28.1963 9.00268 28.0962 9.16108 28.026C9.19306 28.0259 9.22405 28.0149 9.24893 27.995C9.29578 27.9465 9.44414 27.933 9.83458 27.9388C10.1118 27.9388 10.1977 27.9523 10.225 27.993L10.2231 28.0008ZM9.24697 24.8318C8.89732 24.8788 8.55331 24.9607 8.22013 25.076C8.18304 25.0915 8.11666 25.1147 8.06981 25.1283C7.84762 25.205 7.63634 25.3099 7.44121 25.4404C7.45728 25.4988 7.47817 25.5559 7.50368 25.6109C7.59176 25.835 7.69819 26.0515 7.82188 26.2583C7.84864 26.2526 7.87433 26.2428 7.89802 26.2292C8.07112 26.1434 8.2506 26.0708 8.43487 26.0122C8.53443 25.9831 8.65351 25.9443 8.70036 25.9269C8.99698 25.8537 9.30421 25.8328 9.60813 25.8649C10.0571 25.9366 10.2231 26.144 10.2504 26.6731C10.2641 26.9658 10.2641 26.9735 10.1879 26.9929C9.96276 27.0136 9.73658 27.0214 9.51052 27.0162C8.72965 27.0162 8.48172 27.0608 7.9722 27.3088C7.74875 27.4213 7.55161 27.5792 7.39355 27.7722C7.23549 27.9652 7.12004 28.189 7.05468 28.4292C6.97584 28.7771 6.98253 29.1387 7.0742 29.4836C7.37093 30.379 8.08152 30.9004 9.06737 30.9528C9.93214 31.0129 10.7904 30.7671 11.49 30.2589L11.7048 30.0844L11.7145 28.34C11.7243 26.3242 11.7145 26.2544 11.4764 25.7621C11.3062 25.478 11.063 25.2438 10.7716 25.0837C10.6662 25.0353 10.5491 24.9849 10.512 24.9694C10.1031 24.8433 9.67363 24.7966 9.24697 24.8318ZM20.7238 23.3471C19.9879 23.4556 19.7477 23.5021 19.7126 23.5409C19.6775 23.5797 19.6892 24.6127 19.6892 26.6188C19.7048 29.4215 19.7106 29.6735 19.7653 29.8092C19.8335 30.0356 19.9576 30.2415 20.1265 30.4081C20.4739 30.7531 20.9073 30.8946 21.6453 30.8946C22.0494 30.8946 22.106 30.8946 22.1333 30.8345C22.1723 30.5779 22.1802 30.3177 22.1567 30.0592C22.1352 29.9759 22.1235 29.9739 21.8737 29.9526C21.7483 29.958 21.6239 29.929 21.5141 29.8688C21.4042 29.8087 21.3132 29.7196 21.2509 29.6115L21.1689 29.4642L21.1572 27.7605C21.1572 26.4909 21.1572 26.0432 21.1884 26.016C21.2197 25.9889 21.331 25.9715 21.6843 25.9715C22.2309 25.9715 22.1841 26.0238 22.1723 25.39V24.9616L21.7077 24.9461C21.539 24.9443 21.3706 24.9301 21.2041 24.9035C21.1709 24.8841 21.1611 24.6825 21.1611 24.0875V23.2967H21.0889C21.0459 23.2967 20.8937 23.3199 20.7316 23.3432L20.7238 23.3471ZM29.8991 23.2812C29.8991 23.2812 29.737 23.318 29.5555 23.3471C29.3739 23.3761 29.0752 23.4227 28.8937 23.4556L28.5618 23.5118V26.5374C28.5618 29.8324 28.5618 29.6832 28.757 30.0941C28.8292 30.2426 28.9315 30.3746 29.0577 30.4818C29.4091 30.8016 29.737 30.9004 30.4359 30.9024C31.0313 30.9024 31.0079 30.9256 30.9962 30.381V29.9933L30.7404 29.9701C30.2875 29.9313 30.0689 29.7491 30.0181 29.375C30.0045 29.2626 29.9947 27.8554 29.9986 26.2506C29.9986 23.4731 29.9986 23.2056 29.9147 23.285L29.8991 23.2812Z" fill="white"/>
</g>
<defs>
<clipPath id="clip0_429_2309">
<rect width="26" height="26" fill="white" transform="translate(7 7)"/>
</clipPath>
</defs>
</svg>
