<svg width="50" height="50" viewBox="0 0 50 50" fill="none" xmlns="http://www.w3.org/2000/svg">
<circle cx="25" cy="25" r="25" fill="#D9D9D9"/>
<path d="M40 12.5846V11.5533C40 10.6967 39.3193 10 38.4824 10H11.5176C10.6807 10 10 10.6967 10 11.5533V12.5846C10 13.2674 10.435 13.8421 11.0345 14.05V24.5784C10.4335 24.7931 10 25.3621 10 26.0361V27.0674C10 27.7414 10.4335 28.3104 11.0345 28.525V39.4827C11.0345 39.7688 11.2662 40 11.5517 40H21.8966V31.2069C21.8966 30.9208 22.1283 30.6896 22.4138 30.6896H27.5863C27.8718 30.6896 28.1035 30.9208 28.1035 31.2069V40H38.4484C38.7339 40 38.9656 39.7688 38.9656 39.4827V28.525C39.5665 28.3104 40 27.7414 40 27.0674V26.0361C40 25.3621 39.5665 24.7931 38.9655 24.5785V14.05C39.565 13.8421 40 13.2674 40 12.5846ZM19.8276 36.8966H19.3103H14.1379H13.6207C13.3352 36.8966 13.1034 36.6654 13.1034 36.3793C13.1034 36.0933 13.3352 35.8621 13.6207 35.8621V31.2069C13.6207 30.9208 13.8524 30.6896 14.1379 30.6896H19.3104C19.5959 30.6896 19.8276 30.9208 19.8276 31.2069V35.8621C20.1132 35.8621 20.3449 36.0933 20.3449 36.3793C20.3448 36.6654 20.1131 36.8966 19.8276 36.8966ZM36.3793 36.8966H35.8621H30.6896H30.1724C29.8868 36.8966 29.6551 36.6654 29.6551 36.3793C29.6551 36.0933 29.8868 35.8621 30.1724 35.8621V31.2069C30.1724 30.9208 30.4041 30.6896 30.6896 30.6896H35.8621C36.1476 30.6896 36.3793 30.9208 36.3793 31.2069V35.8621C36.6648 35.8621 36.8966 36.0933 36.8966 36.3793C36.8965 36.6654 36.6648 36.8966 36.3793 36.8966ZM38.9655 27.0674C38.9655 27.3535 38.7328 27.5862 38.4473 27.5862H11.5527C11.2672 27.5862 11.0345 27.3535 11.0345 27.0674V26.0361C11.0345 25.75 11.2672 25.5173 11.5527 25.5173H38.4473C38.7328 25.5173 38.9655 25.75 38.9655 26.0361V27.0674ZM20.3448 21.8966C20.3448 22.1826 20.1131 22.4138 19.8276 22.4138H19.3103H14.1379H13.6207C13.3352 22.4138 13.1034 22.1826 13.1034 21.8966C13.1034 21.6105 13.3352 21.3793 13.6207 21.3793V16.7242C13.6207 16.4381 13.8524 16.2069 14.1379 16.2069H19.3104C19.5959 16.2069 19.8276 16.4381 19.8276 16.7242V21.3793C20.1131 21.3793 20.3448 21.6105 20.3448 21.8966ZM28.6207 21.8966C28.6207 22.1826 28.3889 22.4138 28.1034 22.4138H27.5862H22.4137H21.8965C21.6109 22.4138 21.3792 22.1826 21.3792 21.8966C21.3792 21.6105 21.6109 21.3793 21.8965 21.3793V16.7242C21.8965 16.4381 22.1282 16.2069 22.4137 16.2069H27.5862C27.8717 16.2069 28.1034 16.4381 28.1034 16.7242V21.3793C28.3889 21.3793 28.6207 21.6105 28.6207 21.8966ZM36.8965 21.8966C36.8965 22.1826 36.6648 22.4138 36.3793 22.4138H35.862H30.6896H30.1723C29.8868 22.4138 29.655 22.1826 29.655 21.8966C29.655 21.6105 29.8868 21.3793 30.1723 21.3793V16.7242C30.1723 16.4381 30.404 16.2069 30.6896 16.2069H35.862C36.1475 16.2069 36.3793 16.4381 36.3793 16.7242V21.3793C36.6648 21.3793 36.8965 21.6105 36.8965 21.8966ZM38.4824 13.1035H38.4483H11.5517H11.5176C11.2512 13.1035 11.0345 12.8707 11.0345 12.5847V11.5533C11.0345 11.2672 11.2512 11.0345 11.5176 11.0345H38.4824C38.7488 11.0345 38.9655 11.2672 38.9655 11.5533V12.5846C38.9655 12.8707 38.7488 13.1035 38.4824 13.1035Z" fill="#878787"/>
<path d="M18.7932 17.2411H17.2415V18.7928H18.7932V17.2411Z" fill="#878787"/>
<path d="M27.0691 17.2411H25.5173V18.7928H27.0691V17.2411Z" fill="#878787"/>
<path d="M22.9312 18.7931H24.4829V17.7948C24.4818 17.7824 24.4756 17.7715 24.4756 17.7586C24.4756 17.7456 24.4818 17.7348 24.4829 17.7224V17.2413H22.9312V18.7931Z" fill="#878787"/>
<path d="M24.4829 19.8273H22.9312V21.379H24.4829V19.8273Z" fill="#878787"/>
<path d="M16.207 17.2411H14.6553V18.7928H16.207V17.2411Z" fill="#878787"/>
<path d="M18.7932 19.8273H17.2415V21.379H18.7932V19.8273Z" fill="#878787"/>
<path d="M16.207 19.8273H14.6553V21.379H16.207V19.8273Z" fill="#878787"/>
<path d="M35.345 17.2411H33.7932V18.7928H35.345V17.2411Z" fill="#878787"/>
<path d="M35.345 19.8273H33.7932V21.379H35.345V19.8273Z" fill="#878787"/>
<path d="M32.7585 19.8273H31.2068V21.379H32.7585V19.8273Z" fill="#878787"/>
<path d="M27.0691 19.8273H25.5173V21.379H27.0691V19.8273Z" fill="#878787"/>
<path d="M32.7585 17.2411H31.2068V18.7928H32.7585V17.2411Z" fill="#878787"/>
<path d="M16.207 31.7238H14.6553V33.2756H16.207V31.7238Z" fill="#878787"/>
<path d="M16.207 34.31H14.6553V35.8617H16.207V34.31Z" fill="#878787"/>
<path d="M18.7932 31.7238H17.2415V33.2756H18.7932V31.7238Z" fill="#878787"/>
<path d="M35.345 31.7238H33.7932V33.2756H35.345V31.7238Z" fill="#878787"/>
<path d="M22.9312 40H27.0691V31.7241H22.9312V40ZM25.5174 34.8275H26.0346C26.3202 34.8275 26.5519 35.0587 26.5519 35.3448C26.5519 35.6309 26.3202 35.8621 26.0346 35.8621H25.5174C25.2318 35.8621 25.0001 35.6309 25.0001 35.3448C25.0001 35.0587 25.2318 34.8275 25.5174 34.8275Z" fill="#878787"/>
<path d="M18.7932 34.31H17.2415V35.8617H18.7932V34.31Z" fill="#878787"/>
<path d="M35.345 34.31H33.7932V35.8617H35.345V34.31Z" fill="#878787"/>
<path d="M32.7585 34.31H31.2068V35.8617H32.7585V34.31Z" fill="#878787"/>
<path d="M32.7585 31.7238H31.2068V33.2756H32.7585V31.7238Z" fill="#878787"/>
</svg>
