<svg width="40" height="40" viewBox="0 0 40 40" fill="none" xmlns="http://www.w3.org/2000/svg">
<rect width="40" height="40" rx="10" fill="black" fill-opacity="0.1"/>
<g clip-path="url(#clip0_429_2312)">
<path d="M10.75 27C10.52 27 10.3334 27.168 10.3334 27.375C10.3334 27.582 10.52 27.75 10.75 27.75H14.9166C15.1466 27.75 15.3333 27.582 15.3333 27.375C15.3333 27.168 15.1466 27 14.9166 27H14.5V18.0001H14.9166C15.1466 18.0001 15.3333 17.8321 15.3333 17.6251C15.3333 17.4181 15.1466 17.2501 14.9166 17.2501H10.75C10.52 17.2501 10.3334 17.4181 10.3334 17.6251C10.3334 17.8321 10.52 18.0001 10.75 18.0001H11.1667V27H10.75ZM12 18.0001H13.6667V27H12V18.0001Z" fill="black"/>
<path d="M7.41674 16.5002H31.5832C31.7695 16.5002 31.9328 16.3892 31.9841 16.2279C32.0349 16.0671 31.9612 15.8949 31.8028 15.8065L19.7196 9.0565C19.585 8.98149 19.415 8.98149 19.2804 9.0565L7.19716 15.8065C7.03881 15.895 6.96508 16.0671 7.01591 16.2279C7.06713 16.3892 7.23051 16.5002 7.41674 16.5002ZM19.5 9.81662L30.122 15.7502H8.87796L19.5 9.81662Z" fill="black"/>
<path d="M8.66675 28.875C8.66675 29.082 8.85342 29.25 9.0834 29.25H29.9166C30.1466 29.25 30.3333 29.082 30.3333 28.875C30.3333 28.668 30.1466 28.5 29.9166 28.5H9.0834C8.85342 28.5 8.66675 28.668 8.66675 28.875Z" fill="black"/>
<path d="M31.5833 30H7.41677C7.18679 30 7.00012 30.168 7.00012 30.375V31.125C7.00012 31.332 7.18679 31.5 7.41677 31.5C7.64675 31.5 7.83342 31.332 7.83342 31.125V30.75H31.1666V31.125C31.1666 31.332 31.3533 31.5 31.5833 31.5C31.8133 31.5 31.9999 31.332 31.9999 31.125V30.375C32 30.168 31.8133 30 31.5833 30Z" fill="black"/>
<path d="M17.4166 27C17.1867 27 17 27.168 17 27.375C17 27.582 17.1867 27.75 17.4166 27.75H21.5833C21.8133 27.75 21.9999 27.582 21.9999 27.375C21.9999 27.168 21.8133 27 21.5833 27H21.1666V18.0001H21.5833C21.8133 18.0001 21.9999 17.8321 21.9999 17.6251C21.9999 17.4181 21.8133 17.2501 21.5833 17.2501H17.4166C17.1867 17.2501 17 17.4181 17 17.6251C17 17.8321 17.1867 18.0001 17.4166 18.0001H17.8333V27H17.4166ZM18.6666 18.0001H20.3333V27H18.6666V18.0001Z" fill="black"/>
<path d="M24.0833 27C23.8533 27 23.6666 27.168 23.6666 27.375C23.6666 27.582 23.8533 27.75 24.0833 27.75H28.2499C28.4799 27.75 28.6665 27.582 28.6665 27.375C28.6665 27.168 28.4799 27 28.2499 27H27.8333V18.0001H28.2499C28.4799 18.0001 28.6665 17.8321 28.6665 17.6251C28.6665 17.4181 28.4799 17.2501 28.2499 17.2501H24.0833C23.8533 17.2501 23.6666 17.4181 23.6666 17.6251C23.6666 17.8321 23.8533 18.0001 24.0833 18.0001H24.4999V27H24.0833ZM25.3333 18.0001H26.9999V27H25.3333V18.0001Z" fill="black"/>
</g>
<defs>
<clipPath id="clip0_429_2312">
<rect width="25" height="22.5" fill="white" transform="translate(7 9)"/>
</clipPath>
</defs>
</svg>
