<svg width="35" height="35" viewBox="0 0 35 35" fill="none" xmlns="http://www.w3.org/2000/svg">
<path d="M26.2502 10.2083H27.7085V11.6667C27.7085 12.0534 27.8621 12.4244 28.1356 12.6979C28.4091 12.9714 28.7801 13.125 29.1668 13.125C29.5536 13.125 29.9245 12.9714 30.198 12.6979C30.4715 12.4244 30.6252 12.0534 30.6252 11.6667V10.2083H32.0835C32.4703 10.2083 32.8412 10.0547 33.1147 9.78119C33.3882 9.5077 33.5418 9.13677 33.5418 8.75C33.5418 8.36322 33.3882 7.99229 33.1147 7.7188C32.8412 7.44531 32.4703 7.29166 32.0835 7.29166H30.6252V5.83333C30.6252 5.44656 30.4715 5.07562 30.198 4.80213C29.9245 4.52864 29.5536 4.375 29.1668 4.375C28.7801 4.375 28.4091 4.52864 28.1356 4.80213C27.8621 5.07562 27.7085 5.44656 27.7085 5.83333V7.29166H26.2502C25.8634 7.29166 25.4925 7.44531 25.219 7.7188C24.9455 7.99229 24.7918 8.36322 24.7918 8.75C24.7918 9.13677 24.9455 9.5077 25.219 9.78119C25.4925 10.0547 25.8634 10.2083 26.2502 10.2083ZM29.1668 23.3333C28.2616 23.338 27.3801 23.6233 26.6439 24.15L23.071 22.0354C23.2396 21.5121 23.3281 20.9664 23.3335 20.4167C23.3293 19.1267 22.8976 17.8745 22.106 16.8559C21.3144 15.8374 20.2075 15.11 18.9585 14.7875V11.4042C19.9315 11.0601 20.7516 10.3832 21.2738 9.49305C21.796 8.60286 21.9867 7.55673 21.8122 6.53955C21.6376 5.52237 21.1091 4.59963 20.3201 3.93443C19.531 3.26922 18.5322 2.90437 17.5002 2.90437C16.4681 2.90437 15.4693 3.26922 14.6802 3.93443C13.8912 4.59963 13.3627 5.52237 13.1882 6.53955C13.0136 7.55673 13.2043 8.60286 13.7265 9.49305C14.2487 10.3832 15.0688 11.0601 16.0418 11.4042V14.7875C14.7928 15.11 13.6859 15.8374 12.8943 16.8559C12.1027 17.8745 11.671 19.1267 11.6668 20.4167C11.6722 20.9664 11.7607 21.5121 11.9293 22.0354L8.35641 24.15C7.62018 23.6233 6.73871 23.338 5.8335 23.3333C4.9682 23.3333 4.12234 23.5899 3.40288 24.0706C2.68341 24.5514 2.12266 25.2347 1.79153 26.0341C1.46039 26.8335 1.37375 27.7132 1.54256 28.5619C1.71137 29.4105 2.12805 30.1901 2.73991 30.8019C3.35176 31.4138 4.13131 31.8305 4.97998 31.9993C5.82864 32.1681 6.70831 32.0814 7.50774 31.7503C8.30716 31.4192 8.99045 30.8584 9.47118 30.1389C9.95191 29.4195 10.2085 28.5736 10.2085 27.7083C10.2031 27.3133 10.1442 26.9209 10.0335 26.5417L13.3877 24.5437C14.4806 25.6302 15.9591 26.24 17.5002 26.24C19.0412 26.24 20.5197 25.6302 21.6127 24.5437L24.9668 26.5417C24.7225 27.4248 24.7616 28.3624 25.0787 29.2222C25.3958 30.0819 25.9748 30.8204 26.7341 31.3334C27.4934 31.8464 28.3946 32.1081 29.3106 32.0814C30.2265 32.0548 31.111 31.7412 31.8392 31.185C32.5674 30.6287 33.1026 29.8578 33.3692 28.9811C33.6358 28.1044 33.6203 27.1661 33.3251 26.2986C33.0298 25.4312 32.4696 24.6783 31.7236 24.1462C30.9775 23.6142 30.0832 23.3299 29.1668 23.3333ZM5.8335 29.1667C5.54507 29.1667 5.26311 29.0811 5.02329 28.9209C4.78347 28.7606 4.59655 28.5329 4.48617 28.2664C4.3758 27.9999 4.34692 27.7067 4.40319 27.4238C4.45946 27.1409 4.59835 26.8811 4.8023 26.6771C5.00625 26.4732 5.2661 26.3343 5.54899 26.278C5.83188 26.2217 6.1251 26.2506 6.39158 26.361C6.65805 26.4714 6.88581 26.6583 7.04606 26.8981C7.2063 27.1379 7.29183 27.4199 7.29183 27.7083C7.29183 28.0951 7.13819 28.466 6.8647 28.7395C6.5912 29.013 6.22027 29.1667 5.8335 29.1667ZM17.5002 5.83333C17.7886 5.83333 18.0705 5.91886 18.3104 6.0791C18.5502 6.23935 18.7371 6.46711 18.8475 6.73358C18.9579 7.00006 18.9867 7.29328 18.9305 7.57617C18.8742 7.85906 18.7353 8.11891 18.5314 8.32286C18.3274 8.52681 18.0676 8.6657 17.7847 8.72197C17.5018 8.77824 17.2086 8.74937 16.9421 8.63899C16.6756 8.52861 16.4478 8.34169 16.2876 8.10187C16.1274 7.86205 16.0418 7.58009 16.0418 7.29166C16.0418 6.90489 16.1955 6.53396 16.469 6.26047C16.7425 5.98698 17.1134 5.83333 17.5002 5.83333ZM17.5002 23.3333C16.9233 23.3333 16.3594 23.1623 15.8798 22.8418C15.4001 22.5213 15.0263 22.0658 14.8055 21.5328C14.5848 20.9999 14.527 20.4134 14.6395 19.8476C14.7521 19.2819 15.0299 18.7622 15.4378 18.3543C15.8457 17.9464 16.3654 17.6686 16.9311 17.556C17.4969 17.4435 18.0834 17.5013 18.6163 17.722C19.1493 17.9428 19.6048 18.3166 19.9253 18.7963C20.2458 19.2759 20.4168 19.8398 20.4168 20.4167C20.4168 21.1902 20.1095 21.9321 19.5626 22.4791C19.0156 23.026 18.2737 23.3333 17.5002 23.3333ZM29.1668 29.1667C28.8784 29.1667 28.5964 29.0811 28.3566 28.9209C28.1168 28.7606 27.9299 28.5329 27.8195 28.2664C27.7091 27.9999 27.6802 27.7067 27.7365 27.4238C27.7928 27.1409 27.9317 26.8811 28.1356 26.6771C28.3396 26.4732 28.5994 26.3343 28.8823 26.278C29.1652 26.2217 29.4584 26.2506 29.7249 26.361C29.9914 26.4714 30.2191 26.6583 30.3794 26.8981C30.5396 27.1379 30.6252 27.4199 30.6252 27.7083C30.6252 28.0951 30.4715 28.466 30.198 28.7395C29.9245 29.013 29.5536 29.1667 29.1668 29.1667Z" fill="#1F92CC"/>
</svg>
