<svg width="50" height="49" viewBox="0 0 50 49" fill="none" xmlns="http://www.w3.org/2000/svg">
<path d="M48 24.447C48 36.5821 37.7725 46.544 25 46.544C12.2275 46.544 2 36.5821 2 24.447C2 12.3118 12.2275 2.34991 25 2.34991C37.7725 2.34991 48 12.3118 48 24.447Z" fill="#D45450" stroke="white" stroke-width="4"/>
<g clip-path="url(#clip0_329_40723)">
<path d="M27.1371 24.4509L31.0624 20.6763L31.0628 20.6759C31.3468 20.4021 31.5099 20.0269 31.5099 19.6315C31.5099 19.2362 31.3468 18.8609 31.0628 18.5872C30.7794 18.314 30.3989 18.1637 30.0058 18.1637C29.6127 18.1637 29.2322 18.314 28.9488 18.5872L28.9484 18.5876L25.0058 22.3966L21.0632 18.5876L21.0628 18.5872C20.7794 18.314 20.3989 18.1637 20.0058 18.1637C19.6127 18.1637 19.2322 18.314 18.9488 18.5872C18.6648 18.8609 18.5017 19.2362 18.5017 19.6315C18.5017 20.0269 18.6648 20.4021 18.9488 20.6759L18.9492 20.6763L22.8745 24.4509L18.9503 28.2246C18.95 28.2248 18.9498 28.225 18.9496 28.2253C18.8085 28.3603 18.6955 28.5219 18.6179 28.7013C18.5403 28.881 18.5 29.0745 18.5 29.2703C18.5 29.4662 18.5403 29.6597 18.6179 29.8394L19.0769 29.641L18.6179 29.8394C18.6953 30.0185 18.8081 30.1798 18.9488 30.3147C19.0887 30.4503 19.2541 30.5571 19.4349 30.6297C19.6163 30.7025 19.8103 30.7398 20.0058 30.7398C20.2013 30.7398 20.3953 30.7025 20.5767 30.6297C20.7579 30.5569 20.9236 30.4498 21.0637 30.3138C21.0639 30.3136 21.0641 30.3134 21.0643 30.3133L25.0058 26.5052L28.9473 30.3133C28.9475 30.3135 28.9478 30.3137 28.948 30.3139C29.0881 30.4499 29.2537 30.5569 29.4349 30.6297L29.6212 30.1657L29.4349 30.6297C29.6163 30.7025 29.8103 30.7398 30.0058 30.7398C30.2013 30.7398 30.3953 30.7025 30.5767 30.6297L30.3904 30.1657L30.5767 30.6297C30.7575 30.5571 30.9229 30.4503 31.0628 30.3147C31.2035 30.1798 31.3163 30.0185 31.3937 29.8394C31.4713 29.6597 31.5116 29.4662 31.5116 29.2703C31.5116 29.0745 31.4713 28.881 31.3937 28.7013C31.3161 28.5219 31.2031 28.3603 31.062 28.2252C31.0618 28.225 31.0615 28.2248 31.0613 28.2246L27.1371 24.4509Z" fill="white" stroke="white"/>
</g>
<defs>
<clipPath id="clip0_329_40723">
<rect width="24" height="23.1332" fill="white" transform="translate(13 12.8804)"/>
</clipPath>
</defs>
</svg>
