<svg width="35" height="35" viewBox="0 0 35 35" fill="none" xmlns="http://www.w3.org/2000/svg">
<g clip-path="url(#clip0_254_2770)">
<path d="M15.7414 15.8987C15.7439 15.3623 15.9215 14.8414 16.2472 14.4153C16.6862 13.8503 17.1869 13.3361 17.74 12.8822C18.239 12.453 18.6965 11.9778 19.1065 11.4629C19.3643 11.1012 19.4979 10.6656 19.4872 10.2215C19.4933 9.94965 19.4446 9.67933 19.3439 9.42669C19.2432 9.17406 19.0926 8.9443 18.9011 8.75117C18.7096 8.55805 18.4812 8.40554 18.2294 8.3027C17.9777 8.19986 17.7078 8.1488 17.4358 8.15262C16.8931 8.14734 16.3685 8.3481 15.9679 8.71436C15.5013 9.16399 15.1609 9.7283 14.981 10.3509L12.7549 9.37953C13.038 8.29554 13.6635 7.33191 14.5383 6.63199C15.4014 5.98301 16.4587 5.64504 17.5382 5.67304C18.3594 5.66449 19.1707 5.85286 19.904 6.22235C20.6031 6.57338 21.1935 7.10797 21.6119 7.76886C22.0362 8.4418 22.2561 9.22336 22.245 10.0188C22.2541 10.7352 22.0612 11.4397 21.6885 12.0516C21.2174 12.7715 20.6465 13.4211 19.993 13.9808C19.4941 14.4041 19.0247 14.861 18.5882 15.3483C18.3378 15.6351 18.1987 16.0021 18.1961 16.3828C18.2032 16.6161 18.2379 16.8477 18.2996 17.0728H16.0238C15.8463 16.7063 15.75 16.3058 15.7414 15.8987ZM17.2589 23.1068C16.9991 23.1134 16.7406 23.067 16.4993 22.9704C16.2579 22.8739 16.0388 22.7291 15.8552 22.5451C15.6684 22.3627 15.5214 22.1437 15.4233 21.9017C15.3252 21.6598 15.2782 21.4002 15.2852 21.1393C15.279 20.8764 15.3264 20.6151 15.4244 20.3711C15.5224 20.1271 15.6689 19.9056 15.8552 19.72C16.037 19.5328 16.2556 19.3851 16.4971 19.2861C16.7386 19.1871 16.998 19.1391 17.2589 19.1449C17.5215 19.1393 17.7824 19.1872 18.0258 19.2857C18.2692 19.3842 18.4901 19.5312 18.6748 19.7178C18.8596 19.9044 19.0044 20.1266 19.1005 20.371C19.1966 20.6154 19.2419 20.8768 19.2337 21.1393C19.2407 21.4001 19.1937 21.6597 19.0958 21.9016C18.9979 22.1434 18.8512 22.3625 18.6648 22.5451C18.4807 22.7291 18.2612 22.8737 18.0195 22.9703C17.7778 23.0669 17.5191 23.1133 17.2589 23.1068Z" fill="#1F92CC"/>
<path d="M1.52482 34.941C1.30095 34.9408 1.07987 34.8914 0.877247 34.7962C0.614069 34.6749 0.391396 34.4803 0.235838 34.2358C0.08028 33.9912 -0.00158371 33.7071 2.32101e-05 33.4173V3.75719C0.00111842 2.77753 0.390776 1.83826 1.0835 1.14553C1.77623 0.452802 2.71546 0.063168 3.69512 0.0620728H31.3049C32.2846 0.063168 33.2238 0.452802 33.9165 1.14553C34.6093 1.83826 34.9989 2.77753 35 3.75719V24.8767C34.9987 25.8562 34.6089 26.7952 33.9162 27.4877C33.2235 28.1802 32.2844 28.5697 31.3049 28.5708H10.6446C10.0256 28.571 9.42633 28.7885 8.95123 29.1853L2.49618 34.5852C2.22407 34.8139 1.88029 34.9398 1.52482 34.941ZM3.69512 2.131C3.264 2.13154 2.8507 2.30303 2.54585 2.60788C2.241 2.91273 2.0695 3.32607 2.06895 3.75719V32.2442L7.62401 27.5984C8.47156 26.8907 9.54048 26.5027 10.6446 26.5019H31.3049C31.7359 26.5016 32.1493 26.3303 32.4541 26.0257C32.759 25.721 32.9305 25.3078 32.9311 24.8767V3.75719C32.9305 3.32607 32.759 2.91273 32.4542 2.60788C32.1493 2.30303 31.736 2.13154 31.3049 2.131H3.69512Z" fill="#1F92CC"/>
</g>
<defs>
<clipPath id="clip0_254_2770">
<rect width="35" height="35" fill="white"/>
</clipPath>
</defs>
</svg>
