<svg width="94" height="94" viewBox="0 0 94 94" fill="none" xmlns="http://www.w3.org/2000/svg">
<g clip-path="url(#clip0_254_2886)">
<path d="M50.0256 5.98663C49.0188 5.91229 48.0096 5.87506 47 5.875V0C48.1547 0.000562987 49.3089 0.0436756 50.4604 0.12925L50.0256 5.98663ZM61.7991 8.63037C59.9159 7.90366 57.9817 7.31654 56.0123 6.87375L57.2989 1.13975C59.549 1.645 61.7639 2.31475 63.9141 3.149L61.7991 8.63037ZM69.8479 12.8016C69.0079 12.2414 68.1476 11.7123 67.2688 11.2154L70.1651 6.10413C72.1738 7.24232 74.0962 8.52653 75.9168 9.94637L72.3036 14.5818C71.5071 13.9604 70.688 13.3685 69.8479 12.8075V12.8016ZM80.6226 23.3179C79.4605 21.6669 78.1783 20.1038 76.7863 18.6414L81.0397 14.5876C82.626 16.262 84.0948 18.0539 85.4284 19.9339L80.6226 23.3179ZM84.9936 31.2609C84.608 30.3294 84.1886 29.4123 83.7364 28.5114L88.9828 25.8676C90.0203 27.9302 90.9039 30.0667 91.6265 32.2596L86.0453 34.0985C85.7295 33.1401 85.3787 32.1936 84.9936 31.2609ZM88.1074 45.9895C88.0599 43.9705 87.8635 41.9577 87.5199 39.9676L93.3068 38.9689C93.7004 41.2366 93.9295 43.5396 93.9883 45.8426L88.1133 45.9895H88.1074ZM87.3378 55.0252C87.5316 54.0265 87.6903 53.0336 87.8136 52.029L93.6475 52.7516C93.3653 55.0438 92.9137 57.3119 92.2963 59.5373L86.6328 57.9686C86.903 56.9992 87.138 56.0181 87.3378 55.0252ZM81.7448 69.0019C82.8257 67.2981 83.7775 65.5121 84.6 63.6674L89.9698 66.0467C89.0298 68.1618 87.9429 70.1945 86.7091 72.145L81.7448 69.0019ZM76.0813 76.0812C76.798 75.3645 77.4854 74.6242 78.1375 73.8605L82.5908 77.6969C81.8366 78.5713 81.0508 79.4178 80.2349 80.2349L76.0813 76.0812Z" fill="black" fill-opacity="0.6"/>
<path d="M47 5.875C40.2372 5.87549 33.5789 7.54377 27.6148 10.7321C21.6507 13.9204 16.5649 18.5303 12.8079 24.1536C9.05088 29.7768 6.73863 36.2398 6.07593 42.9701C5.41324 49.7004 6.42054 56.4902 9.00863 62.7383C11.5967 68.9863 15.6857 74.4996 20.9134 78.7899C26.1412 83.0802 32.3462 86.0151 38.9791 87.3346C45.612 88.6541 52.4679 88.3175 58.9396 86.3546C65.4113 84.3917 71.299 80.8631 76.0813 76.0812L80.2349 80.2349C74.7696 85.7032 68.0399 89.7391 60.642 91.9848C53.2442 94.2307 45.4066 94.6171 37.8237 93.1098C30.2408 91.6026 23.1467 88.2483 17.17 83.3441C11.1933 78.4399 6.51856 72.1372 3.55991 64.9945C0.601251 57.8518 -0.549939 50.0895 0.208335 42.3956C0.966608 34.7016 3.61093 27.3135 7.90701 20.8857C12.2031 14.458 18.0183 9.18915 24.8374 5.54602C31.6564 1.90288 39.2688 -0.0020488 47 1.65357e-06V5.875Z" fill="black" fill-opacity="0.6"/>
<path d="M44.0625 17.625C44.8416 17.625 45.5887 17.9345 46.1396 18.4854C46.6905 19.0363 47 19.7834 47 20.5625V51.1712L66.082 62.0752C66.7388 62.4715 67.2145 63.1088 67.4076 63.8512C67.6006 64.5935 67.4957 65.3819 67.1151 66.0479C66.7346 66.7139 66.1086 67.2046 65.371 67.4152C64.6335 67.6257 63.8428 67.5394 63.168 67.1748L42.6055 55.4248C42.1559 55.1679 41.7822 54.7968 41.5222 54.3491C41.2622 53.9013 41.1252 53.3928 41.125 52.875V20.5625C41.125 19.7834 41.4345 19.0363 41.9854 18.4854C42.5363 17.9345 43.2834 17.625 44.0625 17.625Z" fill="black" fill-opacity="0.6"/>
</g>
<defs>
<clipPath id="clip0_254_2886">
<rect width="94" height="94" fill="white"/>
</clipPath>
</defs>
</svg>
