<svg width="38" height="38" viewBox="0 0 38 38" fill="none" xmlns="http://www.w3.org/2000/svg">
<path d="M16.7596 2.39834C16.4661 2.3973 16.1717 2.39759 15.8764 2.39885C14.4553 2.40546 13.0116 2.44279 11.5555 2.49682L11.9767 4.34435C13.4931 4.17291 15.1555 4.04525 16.8178 3.98142C17.7184 3.94683 18.6134 3.92858 19.4817 3.93318C22.0864 3.94676 24.4496 4.16548 25.9958 4.76458L26.657 5.02093L26.3618 5.66552C24.2049 10.3773 23.7061 14.923 24.0441 19.3831C24.211 14.0899 26.4112 9.3821 29.2995 3.34678C25.3692 2.69365 21.1626 2.41296 16.7596 2.39826V2.39834ZM18.8403 5.27728C18.1916 5.2778 17.5303 5.29094 16.8691 5.31632C13.7762 5.43507 10.6942 5.798 8.68543 6.21407C10.9293 10.3762 12.7445 14.5479 13.9166 18.6147C14.0624 18.6098 14.2083 18.6109 14.354 18.618C14.6522 18.6326 14.9472 18.6731 15.2354 18.736C14.0423 14.9214 12.6834 11.4032 10.9941 7.89037L10.6124 7.09668L11.4797 6.94319C13.6585 6.55741 15.9073 6.40808 18.0476 6.40741C18.1903 6.40741 18.3326 6.40793 18.4742 6.40919C19.8342 6.42107 21.1449 6.49142 22.3593 6.59733L23.1797 6.66896L22.9404 7.45694C21.5525 12.0261 21.2806 16.933 22.0654 21.6017C22.0784 21.6138 22.0916 21.6258 22.1044 21.6381C22.3874 21.5389 22.6521 21.4378 22.8989 21.3298C22.2863 16.3279 22.5577 11.1675 24.8456 5.80312C23.5689 5.47782 21.6226 5.30778 19.4841 5.28107C19.2695 5.27841 19.0549 5.27717 18.8403 5.27735V5.27728ZM29.5979 5.82539C27.3004 10.6909 25.6685 14.5899 25.4011 18.799C26.8882 13.8411 29.7628 9.39664 33.0385 6.54123C31.9014 6.25761 30.7537 6.01881 29.5979 5.82539ZM7.70626 7.20058C6.31392 7.48766 4.95379 7.85208 3.63818 8.35558C4.27839 8.91073 5.43576 9.94349 6.83998 11.3161C7.48628 10.6509 8.14541 9.99366 8.8329 9.39605C8.46878 8.65842 8.09318 7.92651 7.70626 7.20058ZM18.247 7.75589C17.2362 7.75099 16.2014 7.77994 15.1629 7.85185C15.054 8.86731 14.4534 9.81732 13.7361 10.7516C14.8814 13.4583 15.8705 16.2202 16.7609 19.1527C18.1247 19.555 19.4739 20.0305 20.5669 20.6003C20.1609 17.4491 20.2164 14.2202 20.7435 11.0626C19.7872 10.0747 19.2891 8.97775 19.2491 7.7717C18.9152 7.7628 18.5811 7.75753 18.247 7.75589ZM31.7562 9.75868C29.9207 11.9333 28.3034 14.6569 27.2014 17.6193C29.2249 14.741 31.7131 12.4959 34.3618 10.91C33.4989 10.5136 32.6303 10.1298 31.7562 9.75868ZM9.43563 10.6463C8.35248 11.6251 7.28225 12.7999 6.16771 13.9191C8.56416 15.3434 10.6053 17.0302 12.2704 18.9407C12.3738 18.9017 12.4782 18.8666 12.5833 18.8346C11.8041 16.1556 10.7363 13.4142 9.43563 10.6463ZM26.7573 19.9052C25.5404 21.3738 24.3946 22.1492 22.8171 22.7678C22.9945 23.4521 22.731 24.2377 22.1243 24.8386C21.7675 25.192 21.319 25.5947 20.6634 25.8565C20.758 25.9125 20.8545 25.9652 20.9528 26.0144C21.8705 26.4723 23.4916 26.3246 24.9977 25.6396C26.4992 24.9568 27.8405 23.7773 28.3376 22.5825C28.5867 21.9108 28.4088 21.5605 27.9727 21.0468C27.6621 20.6812 27.2086 20.3127 26.7573 19.9053V19.9052ZM14.1343 19.9487C13.339 19.9414 12.5314 20.1709 11.8639 20.6731C10.9147 21.3873 10.1829 22.6609 10.1763 24.8244V24.8393L10.1756 24.8541C9.95887 29.4097 10.2943 31.5115 10.959 32.6519C11.5456 33.6585 12.5213 34.1403 13.9485 35.0265C14.0165 34.8479 14.0873 34.6283 14.1537 34.3512C14.3227 33.6462 14.4625 32.678 14.5512 31.607C14.7285 29.4652 14.7026 26.8933 14.4061 25.0427L14.2494 24.0638L15.2154 24.286C17.5618 24.8258 18.9041 24.8896 19.6834 24.7521C20.4628 24.6145 20.727 24.3422 21.1842 23.8894C21.6139 23.464 21.6059 23.3109 21.5149 23.0714C21.4238 22.8319 21.0585 22.4372 20.4387 22.0596C19.199 21.3044 17.0926 20.6041 15.1236 20.0819C14.8007 19.9964 14.4683 19.9517 14.1343 19.9487ZM28.169 25.1007C27.4259 25.8246 26.5114 26.4189 25.5508 26.8557C23.9935 27.5639 22.2805 27.8879 20.8594 27.4163C20.3577 27.603 20.0662 27.8176 19.9192 27.9952C19.7175 28.2389 19.7048 28.4182 19.7732 28.675C19.8415 28.9318 20.0452 29.2367 20.2971 29.4561C20.5489 29.6755 20.8482 29.7895 20.962 29.7948C24.435 29.9598 25.9381 28.9631 27.8107 27.807C28.3568 27.4699 28.5658 26.7871 28.5135 26.1051C28.4873 25.7642 28.3881 25.4438 28.2735 25.242C28.2451 25.1905 28.2099 25.143 28.169 25.1007ZM15.8348 25.7758C16.0372 27.6363 16.0406 29.8069 15.8825 31.7172C15.7899 32.8358 15.6469 33.8531 15.4528 34.6626C15.3685 35.0148 15.2756 35.3271 15.1634 35.6021L26.0511 35.1223C25.9282 34.6659 25.8029 34.2076 25.6777 33.7491C25.2594 33.8883 24.8318 33.998 24.3981 34.0774L24.4014 34.1316L23.7842 34.17C23.4041 34.2156 23.0085 34.2408 22.598 34.2437L16.374 34.6303L16.559 33.7689C17.1488 31.0224 17.2032 28.6041 16.8394 25.9586C16.5034 25.9041 16.1684 25.8432 15.8348 25.7758H15.8348ZM18.2078 26.1234C18.5008 28.4934 18.4655 30.7554 18.0292 33.189L19.4589 33.1003C19.2347 32.7694 19.0807 32.3961 19.0062 32.0035C18.91 31.4928 18.9635 30.9245 19.2976 30.4545C19.3124 30.4337 19.3283 30.4137 19.3441 30.3936C18.9548 30.034 18.6296 29.5726 18.4822 29.0187C18.3253 28.4291 18.4232 27.7073 18.8901 27.1432C19.0444 26.9569 19.2309 26.7888 19.45 26.6374C19.2563 26.483 19.0864 26.3193 18.9398 26.1489C18.7124 26.1504 18.4689 26.142 18.2078 26.1234ZM28.0541 29.2246C26.3132 30.2825 24.3572 31.2935 20.8986 31.1294C20.7858 31.1239 20.6736 31.1086 20.5633 31.0837C20.4718 31.1248 20.423 31.177 20.3865 31.2282C20.3151 31.3288 20.2728 31.5103 20.3191 31.7562C20.4117 32.248 20.8776 32.787 21.3114 32.8374C24.3829 33.1947 26.5051 32.1898 27.7937 31.0208C28.3875 30.4821 28.3925 30.1376 28.3051 29.7627C28.2613 29.5755 28.1648 29.3939 28.0541 29.2246ZM27.5581 32.8659C27.3519 32.9952 27.1402 33.1155 26.9237 33.2267C27.0462 33.6757 27.1689 34.1248 27.2901 34.574L28.7686 34.3089C28.3871 33.9833 28.0886 33.6444 27.849 33.3073C27.742 33.1567 27.6477 33.0103 27.5581 32.8659Z" fill="white"/>
</svg>
