<svg width="101" height="140" viewBox="0 0 101 140" fill="none" xmlns="http://www.w3.org/2000/svg">
<path d="M11.3024 13.7094V16.3003C11.3024 16.3003 12.5867 20.5105 14.7273 21.4821C14.7273 21.4821 15.1554 13.1696 15.9046 13.7094H11.3024Z" fill="#70B78E" stroke="#70B78E" stroke-miterlimit="10"/>
<path d="M23.011 11.604L25.816 8.76723C25.6331 5.39333 19.2251 2.40995 19.2251 2.40995L16.9809 6.3073C16.9809 6.3073 21.9613 8.53983 23.011 11.604Z" fill="#70B78E" stroke="#70B78E" stroke-miterlimit="10"/>
<path d="M40.7132 11.2912V7.1889C40.7132 7.16731 40.6918 7.12412 40.649 7.12412H36.9673H36.9459C36.7318 7.21049 32.515 9.04571 32.9859 12.673C32.9859 12.6946 33.0287 12.7162 33.0501 12.7162C33.7137 12.5866 40.071 11.4423 40.649 11.3344C40.7132 11.3344 40.7132 11.3128 40.7132 11.2912Z" fill="#4FA979" stroke="#4FA979" stroke-miterlimit="10"/>
<path d="M47.4236 4.42526L50.4204 0.862762C50.4204 0.862762 56.4138 0.862762 58.8754 7.12413L55.3436 10.3628C55.3436 10.3628 53.5241 5.39685 47.4236 4.42526Z" fill="#70B78E" stroke="#70B78E" stroke-miterlimit="10"/>
<path d="M62.996 13.1447L66.5771 12.6049C66.5771 12.6049 68.8727 19.406 72.821 18.2185L69.4236 21.2413C69.4236 21.2413 63.7306 19.6219 62.996 13.6844V13.1447Z" fill="#4FA979" stroke="#4FA979" stroke-miterlimit="10"/>
<path d="M76.963 23.4834L79.2105 21.3243C79.2105 21.3243 83.3845 24.5629 86.5953 21.3243L85.7391 24.9948C85.7391 24.9948 79.4246 26.5061 76.963 23.4834Z" fill="#70B78E" stroke="#70B78E" stroke-miterlimit="10"/>
<path d="M93.552 19.597L91.4115 15.9266C91.4115 15.9266 94.3012 12.472 97.405 12.7959L99.2244 16.1857C99.2244 16.1857 95.7996 16.5743 93.552 19.597Z" fill="#70B78E" stroke="#70B78E" stroke-miterlimit="10"/>
<path d="M50.9984 57.3977C52.4111 56.4693 54.6373 51.6761 53.353 46.8398C53.2459 46.4511 53.6312 46.1057 54.0165 46.192C57.5912 47.142 71.2049 50.5102 79.0606 49.4091C79.1249 49.4091 79.1677 49.4091 79.2105 49.4091C79.5744 49.4739 80.8587 49.7977 79.2105 51.158C79.1463 51.2011 79.082 51.2443 79.0178 51.2659C77.7335 51.633 65.1901 55.1091 59.8816 54.008C59.6675 53.9648 59.4535 54.0511 59.325 54.2455L58.2334 58.175C58.2334 58.175 59.0253 54.2886 56.1356 69.4023C56.2213 70.2659 52.7964 65.8614 45.326 69.6398C45.0263 69.7909 44.9407 70.1795 45.1334 70.4602C46.7602 72.792 46.5675 84.6239 43.3995 91.425C43.3995 91.425 39.3325 99.5432 35.6294 104.423C35.2869 104.876 34.5806 104.574 34.6662 104.013C34.6876 103.84 34.7304 103.624 34.7946 103.386C34.8374 103.192 34.9231 102.976 34.9873 102.739C35.8435 100.256 39.6536 90.4966 40.4242 87.9704C40.4242 87.9489 40.4242 87.9273 40.4456 87.9057C40.5526 87.3227 42.2437 78.3409 41.1948 75.5773C41.1948 75.5773 40.7667 74.1307 36.507 76.3761C36.4856 76.3761 36.4642 76.3977 36.4642 76.3977C35.8863 76.6136 26.2111 80.3273 18.4196 78.5568C18.3982 78.5568 18.3768 78.5568 18.3768 78.5352C17.7775 78.3409 6.06881 74.5625 0.95296 67.092C0.95296 67.092 0.439236 66.4659 2.25868 67.1568C2.3229 67.1784 2.36571 67.2 2.40852 67.2432C3.13629 67.8477 9.81473 73.267 14.952 73.8716H14.9734C15.3587 73.9364 24.8412 75.75 29.5718 73.7852C29.5932 73.7636 29.636 73.7636 29.6788 73.7636C30.7062 73.5693 41.7727 71.1511 47.8304 59.708C47.8732 59.6216 47.8304 59.7943 47.8304 59.708C47.8946 59.5568 50.8486 57.5057 50.9984 57.3977Z" fill="#1F92CC" stroke="#1F92CC" stroke-miterlimit="10"/>
<path d="M44.5982 69.05C45.7969 68.1432 52.0472 63.8682 56.1784 68.4022C56.2212 68.4454 56.2426 68.5102 56.2212 68.575C55.8573 70.1727 49.5642 91.9148 35.0515 103.984C35.2441 103.228 42.843 94.117 45.1547 84.3579C45.1547 84.3579 47.5093 71.8352 44.5768 69.3307C44.4912 69.2875 44.4912 69.1363 44.5982 69.05Z" fill="#1F92CC" stroke="#1F92CC" stroke-miterlimit="10"/>
<path d="M35.8435 61.8558C35.8435 61.8558 20.2819 76.9262 1.23124 67.2535C0.974374 68.5705 25.6546 85.5626 43.8062 66.0876C43.8062 66.0876 40.4028 61.6399 35.8435 61.8558Z" fill="#1F92CC" stroke="#1F92CC" stroke-miterlimit="10"/>
<path d="M46.8672 59.017C46.8672 59.3625 52.9891 50.3375 31.3056 40.708C31.3056 40.708 19.1046 29.6318 17.9273 27.8182C16.75 26.0045 37.6629 42.7807 53.1389 45.9545C54.0379 46.0193 55.1296 57.1818 47.8946 59.4489L46.8672 59.017Z" fill="#1F92CC" stroke="#1F92CC" stroke-miterlimit="10"/>
<path d="M14.6938 26.4148C14.6938 26.4148 16.1279 29.9125 22.4639 37.1023C22.4639 37.1023 28.3503 42.6943 30.0841 43.7091C30.0841 43.7091 40.7654 50.208 40.5727 50.208C40.3801 50.208 38.7105 58.4125 36.206 61.5C36.206 61.5 42.1995 62.8602 44.1902 65.7318C45.2819 65.408 52.4954 57.1386 46.4163 50.6614C44.9822 48.8261 41.1721 45.9977 32.6742 39.3261L18.2899 27.8182C18.2899 27.8182 16.6845 25.8102 14.6938 26.4148Z" fill="#1F92CC" stroke="#1F92CC" stroke-miterlimit="10"/>
<path d="M2.49689 90.9363L12.2149 88.9931L31.0515 103.006L2.49689 90.9363Z" fill="#DAD9D9" stroke="#DAD9D9" stroke-miterlimit="10"/>
<path d="M47.738 41.521C50.3164 43.5184 53.2588 44.0183 54.3101 42.6375C55.3614 41.2568 54.1235 38.5183 51.5451 36.5209C48.9668 34.5235 46.0243 34.0237 44.973 35.4044C43.9218 36.7852 45.1597 39.5237 47.738 41.521Z" fill="#1F92CC" stroke="#1F92CC" stroke-miterlimit="10"/>
<path d="M24.6 133.175C23.4333 133.175 22.3833 132.975 21.45 132.575C20.5167 132.158 19.7833 131.575 19.25 130.825C18.7167 130.075 18.45 129.2 18.45 128.2H21.5C21.5667 128.95 21.8583 129.567 22.375 130.05C22.9083 130.533 23.65 130.775 24.6 130.775C25.5833 130.775 26.35 130.542 26.9 130.075C27.45 129.592 27.725 128.975 27.725 128.225C27.725 127.642 27.55 127.167 27.2 126.8C26.8667 126.433 26.4417 126.15 25.925 125.95C25.425 125.75 24.725 125.533 23.825 125.3C22.6917 125 21.7667 124.7 21.05 124.4C20.35 124.083 19.75 123.6 19.25 122.95C18.75 122.3 18.5 121.433 18.5 120.35C18.5 119.35 18.75 118.475 19.25 117.725C19.75 116.975 20.45 116.4 21.35 116C22.25 115.6 23.2917 115.4 24.475 115.4C26.1583 115.4 27.5333 115.825 28.6 116.675C29.6833 117.508 30.2833 118.658 30.4 120.125H27.25C27.2 119.492 26.9 118.95 26.35 118.5C25.8 118.05 25.075 117.825 24.175 117.825C23.3583 117.825 22.6917 118.033 22.175 118.45C21.6583 118.867 21.4 119.467 21.4 120.25C21.4 120.783 21.5583 121.225 21.875 121.575C22.2083 121.908 22.625 122.175 23.125 122.375C23.625 122.575 24.3083 122.792 25.175 123.025C26.325 123.342 27.2583 123.658 27.975 123.975C28.7083 124.292 29.325 124.783 29.825 125.45C30.3417 126.1 30.6 126.975 30.6 128.075C30.6 128.958 30.3583 129.792 29.875 130.575C29.4083 131.358 28.7167 131.992 27.8 132.475C26.9 132.942 25.8333 133.175 24.6 133.175ZM46.1129 120.8C46.1129 121.683 45.9046 122.517 45.4879 123.3C45.0712 124.083 44.4046 124.725 43.4879 125.225C42.5712 125.708 41.3962 125.95 39.9629 125.95H36.8129V133H33.9629V115.625H39.9629C41.2962 115.625 42.4212 115.858 43.3379 116.325C44.2712 116.775 44.9629 117.392 45.4129 118.175C45.8796 118.958 46.1129 119.833 46.1129 120.8ZM39.9629 123.625C41.0462 123.625 41.8546 123.383 42.3879 122.9C42.9212 122.4 43.1879 121.7 43.1879 120.8C43.1879 118.9 42.1129 117.95 39.9629 117.95H36.8129V123.625H39.9629ZM47.8811 126.05C47.8811 124.667 48.1644 123.442 48.7311 122.375C49.3144 121.308 50.0977 120.483 51.0811 119.9C52.0811 119.3 53.1811 119 54.3811 119C55.4644 119 56.4061 119.217 57.2061 119.65C58.0227 120.067 58.6727 120.592 59.1561 121.225V119.225H62.0311V133H59.1561V130.95C58.6727 131.6 58.0144 132.142 57.1811 132.575C56.3477 133.008 55.3977 133.225 54.3311 133.225C53.1477 133.225 52.0644 132.925 51.0811 132.325C50.0977 131.708 49.3144 130.858 48.7311 129.775C48.1644 128.675 47.8811 127.433 47.8811 126.05ZM59.1561 126.1C59.1561 125.15 58.9561 124.325 58.5561 123.625C58.1727 122.925 57.6644 122.392 57.0311 122.025C56.3977 121.658 55.7144 121.475 54.9811 121.475C54.2477 121.475 53.5644 121.658 52.9311 122.025C52.2977 122.375 51.7811 122.9 51.3811 123.6C50.9977 124.283 50.8061 125.1 50.8061 126.05C50.8061 127 50.9977 127.833 51.3811 128.55C51.7811 129.267 52.2977 129.817 52.9311 130.2C53.5811 130.567 54.2644 130.75 54.9811 130.75C55.7144 130.75 56.3977 130.567 57.0311 130.2C57.6644 129.833 58.1727 129.3 58.5561 128.6C58.9561 127.883 59.1561 127.05 59.1561 126.1ZM78.1744 119.225L69.7244 139.475H66.7744L69.5744 132.775L64.1494 119.225H67.3244L71.1994 129.725L75.2244 119.225H78.1744Z" fill="black"/>
</svg>
