<svg width="40" height="40" viewBox="0 0 40 40" fill="none" xmlns="http://www.w3.org/2000/svg">
<rect width="40" height="40" rx="10" fill="#3AA335"/>
<path fill-rule="evenodd" clip-rule="evenodd" d="M13.1023 15.0105H15.5591C16.3406 15.0105 16.9801 15.6483 16.9801 16.4276V20.5019C16.9801 21.2812 16.3406 21.919 15.5591 21.919H13.1023C12.3208 21.919 11.6813 21.2812 11.6813 20.5019V16.4276C11.6813 15.6483 12.3208 15.0105 13.1023 15.0105Z" fill="white"/>
<path fill-rule="evenodd" clip-rule="evenodd" d="M16.4476 28H12.2147C11.5957 28 11.0901 27.495 11.0901 26.8785V14.5086C11.0901 13.8913 11.5965 13.3871 12.2147 13.3871H16.4476C16.4975 13.3871 16.5475 13.3902 16.5958 13.3966V12.4869C16.5958 12.2189 16.8153 12 17.084 12C17.3527 12 17.5722 12.2189 17.5722 12.4869V14.0217C17.5722 14.0897 17.5579 14.1545 17.5326 14.2138C17.5587 14.3078 17.5722 14.4066 17.5722 14.5086V26.8785C17.573 27.495 17.0666 28 16.4476 28ZM13.1023 15.0105H15.5592C16.3406 15.0105 16.9802 15.6483 16.9802 16.4276V20.5019C16.9802 21.2812 16.3406 21.919 15.5592 21.919H13.1023C12.3209 21.919 11.6813 21.2812 11.6813 20.5019V16.4276C11.6813 15.6483 12.3209 15.0105 13.1023 15.0105Z" fill="#D2E288"/>
<path fill-rule="evenodd" clip-rule="evenodd" d="M18.5675 15.2697L21.2692 15.2595C22.2544 15.3843 22.7093 16.1194 22.6681 17.1887C22.5928 18.2668 21.9801 18.7939 20.957 18.8856L19.9766 18.8659L20.0044 21.8234H18.5683V15.2697H18.5675ZM20.0186 15.9423C20.6859 15.8467 21.1971 16.0316 21.232 17.0789C21.2098 18.0139 20.7113 18.2502 20.0186 18.2004V15.9423Z" fill="white"/>
<path fill-rule="evenodd" clip-rule="evenodd" d="M25.1764 15.1883L26.8866 15.1804L26.874 15.9123L25.5346 15.906C24.7619 16.049 24.9346 16.8718 24.8974 17.4661L26.6996 17.4321L26.7059 18.3308L24.96 18.3126L24.9513 20.4885C25.0194 21.0528 25.3174 21.3365 25.8199 21.3689L26.7788 21.3586L27.0713 21.365L27.0618 22.0439L26.7622 22.055L24.9394 22.0352C24.3109 22.0139 23.8037 21.7032 23.5699 20.7374L23.5255 16.5161C23.5517 15.6523 24.1247 15.2278 25.1764 15.1883Z" fill="white"/>
<path fill-rule="evenodd" clip-rule="evenodd" d="M27.5152 17.0417C27.4074 15.6277 28.1975 15.3084 29.1581 15.1962C30.2827 15.1298 30.9888 15.5977 31.1267 16.7904L29.7992 16.7864C29.7152 16.1842 29.2453 15.9534 28.8157 16.2395C28.2031 16.9864 30.1147 18.3015 30.6877 18.7892C31.6783 19.57 31.5103 21.7356 29.9847 22.1371L29.0543 22.1703C28.1096 22.1925 27.5469 21.5973 27.3844 20.494L28.7222 20.4703C28.7951 20.9413 28.9964 21.2345 29.4244 21.2132C30.0901 21.0867 30.274 20.5027 29.8 19.7558C28.8086 18.9172 27.634 18.13 27.5152 17.0417Z" fill="white"/>
<path fill-rule="evenodd" clip-rule="evenodd" d="M4 14.9749H5.40595L5.42101 15.4103C6.2706 15.0444 6.91096 14.7852 7.58224 15.3882C8.78213 14.8231 9.68957 14.8871 10.1397 15.9359L10.2023 21.8233H8.7845V16.2078C8.67989 15.7273 8.29789 15.6451 7.83743 15.6767V21.8241H6.3871V16.2078C6.28249 15.7273 5.90049 15.6451 5.44003 15.6767V21.8241H4V14.9749Z" fill="white"/>
<path fill-rule="evenodd" clip-rule="evenodd" d="M31.9152 21.9956H33.3735V18.3789H34.5868V21.9956H35.9999V16.829C35.9714 15.7794 35.1622 15.1211 34.0162 15.1171C32.7093 15.1053 31.9636 15.7241 31.9144 16.7705V21.9956H31.9152ZM33.3727 16.4607C33.421 16.075 33.5462 15.9193 33.9718 15.8774C34.403 15.8885 34.5567 16.1367 34.586 16.5192V17.5672H33.3727V16.4607Z" fill="white"/>
<path fill-rule="evenodd" clip-rule="evenodd" d="M12.8137 17.7673C13.057 18.334 13.3875 18.5948 13.7885 18.6106C13.1632 19.0762 12.4872 19.3591 11.7818 19.5401C11.3388 19.5117 10.9156 19.3994 10.5043 19.2872C11.5433 19.0833 12.3176 18.5814 12.8137 17.7673Z" fill="#82221C"/>
<path fill-rule="evenodd" clip-rule="evenodd" d="M15.5377 16.3058L18.4685 17.7822C16.9762 19.7407 14.4591 19.7921 11.778 19.5384C13.5699 19.0982 14.811 18.0059 15.5377 16.3058Z" fill="#EC2127"/>
</svg>
