<svg width="143" height="143" viewBox="0 0 143 143" fill="none" xmlns="http://www.w3.org/2000/svg">
<path d="M125.367 105.152L119.008 56.8255C116.426 37.1959 102.026 21.2442 82.9093 16.5824V11.4096C82.9093 5.11812 77.7911 0 71.4997 0C65.2083 0 60.0902 5.11812 60.0902 11.4096V16.5824C40.9731 21.2436 26.5734 37.1956 23.991 56.8255L17.632 105.152C12.3047 106.111 8.24902 110.778 8.24902 116.378V125.505C8.24902 126.766 9.27069 127.787 10.5309 127.787H93.539C88.2419 134.437 80.1219 138.436 71.4994 138.436C65.3532 138.436 59.5145 136.491 54.6148 132.811C53.6068 132.055 52.1766 132.258 51.4199 133.265C50.6633 134.273 50.8664 135.704 51.8741 136.46C57.5706 140.739 64.3567 143 71.4994 143C82.6939 143 93.1603 137.203 99.1356 127.787H132.469C133.73 127.787 134.751 126.766 134.751 125.505V116.378C134.751 110.778 130.695 106.11 125.367 105.152ZM130.187 123.223H12.8127V116.377C12.8127 112.603 15.8833 109.532 19.6572 109.532H95.9583C97.2188 109.532 98.2402 108.51 98.2402 107.25C98.2402 105.989 97.2188 104.968 95.9583 104.968H22.2594L28.5162 57.4206C30.926 39.1021 44.714 24.3237 62.8261 20.6465C63.8897 20.4308 64.6541 19.4958 64.6541 18.4101V11.4096C64.6541 7.63486 67.725 4.56371 71.5 4.56371C75.2747 4.56371 78.3458 7.63486 78.3458 11.4096V18.4104C78.3458 19.4958 79.1103 20.4308 80.1738 20.6467C98.2854 24.324 112.074 39.1024 114.484 57.4209L120.74 104.968H105.086C103.826 104.968 102.804 105.99 102.804 107.25C102.804 108.51 103.826 109.532 105.086 109.532H123.332C127.117 109.532 130.187 112.603 130.187 116.378V123.223H130.187Z" fill="black" fill-opacity="0.6"/>
<path d="M71.4994 9.12769C70.2393 9.12769 69.2176 10.1491 69.2176 11.4095V17.4946C69.2176 18.755 70.2393 19.7764 71.4994 19.7764C72.7599 19.7764 73.7813 18.755 73.7813 17.4946V11.4095C73.7813 10.1491 72.7599 9.12769 71.4994 9.12769Z" fill="black" fill-opacity="0.6"/>
<path d="M86.3203 53.3205C87.5805 53.3205 88.6022 52.2989 88.6022 51.0387C88.6022 49.7785 87.5805 48.7568 86.3203 48.7568C85.0601 48.7568 84.0385 49.7785 84.0385 51.0387C84.0385 52.2989 85.0601 53.3205 86.3203 53.3205Z" fill="black" fill-opacity="0.6"/>
<path d="M98.4904 59.406C99.7506 59.406 100.772 58.3844 100.772 57.1241C100.772 55.8639 99.7506 54.8423 98.4904 54.8423C97.2302 54.8423 96.2086 55.8639 96.2086 57.1241C96.2086 58.3844 97.2302 59.406 98.4904 59.406Z" fill="black" fill-opacity="0.6"/>
<path d="M44.5096 89.8313C45.7698 89.8313 46.7914 88.8097 46.7914 87.5494C46.7914 86.2892 45.7698 85.2676 44.5096 85.2676C43.2493 85.2676 42.2277 86.2892 42.2277 87.5494C42.2277 88.8097 43.2493 89.8313 44.5096 89.8313Z" fill="black" fill-opacity="0.6"/>
</svg>
