<svg width="30" height="30" viewBox="0 0 30 30" fill="none" xmlns="http://www.w3.org/2000/svg">
<path d="M12.4863 1.42432C13.3594 1.44189 13.9863 1.61182 14.4023 1.9165L20.1035 4.96924L23.2734 9.28115C23.9414 10.3124 23.4668 12.3046 21.3809 11.0272L19.0957 8.01553C16.1953 5.51416 10.2773 6.66201 13.084 11.6835C14.4609 14.5897 13.8164 16.0077 12.041 16.6054L11.2324 13.8866C9.83202 10.7343 7.21874 10.1659 7.32421 7.62295L1.04296 8.07412L1.10155 1.50635L12.4863 1.42432ZM15.6562 7.48232C16.6758 7.46475 17.6777 7.88662 18.4043 8.496L20.6953 11.5077C20.0684 12.0058 19.4355 11.7362 18.8086 11.1327C18.0703 11.5077 17.4961 10.9276 17.0273 9.76748C16.834 8.97646 16.5469 8.41982 15.6562 7.48232ZM20.3203 13.1073C20.3437 13.1073 20.373 13.1073 20.3965 13.1132C20.5898 13.1542 20.8184 13.3593 20.9707 13.828C21.1289 14.2968 21.1641 14.9647 21.0234 15.6796C20.8828 16.3886 20.5898 16.9921 20.2617 17.3671C19.9453 17.7362 19.6523 17.8417 19.459 17.8007C19.2598 17.7655 19.0371 17.5546 18.8848 17.0917C18.7266 16.6229 18.6855 15.9491 18.8262 15.2401C18.9726 14.5253 19.2656 13.9218 19.5879 13.5526C19.8691 13.2245 20.1269 13.1073 20.3203 13.1073ZM15.4805 19.3651C15.9434 19.371 16.5234 19.5175 17.0918 19.7929C17.7422 20.1151 18.2519 20.5604 18.5273 20.9706C18.8027 21.3749 18.8262 21.6796 18.7383 21.8612C18.6504 22.037 18.3926 22.2069 17.9004 22.2304C17.4082 22.2597 16.7461 22.1249 16.0957 21.8026C15.4453 21.4804 14.9355 21.0409 14.6601 20.6308C14.3848 20.2265 14.3613 19.9159 14.4492 19.7401C14.5371 19.5585 14.7949 19.3944 15.2871 19.371C15.3516 19.3651 15.4101 19.3651 15.4805 19.3651ZM21.1992 24.9667C21.4746 24.9726 21.7266 25.0136 21.9492 25.078C22.4473 25.2245 22.7344 25.4882 22.8281 25.7987C22.9277 26.1151 22.8281 26.4901 22.4941 26.8944C22.1543 27.2929 21.5859 27.6737 20.8828 27.8847C20.1855 28.0956 19.5059 28.0897 19.0019 27.9374C18.498 27.7909 18.2109 27.5272 18.1172 27.2167C18.0234 26.9003 18.1172 26.5253 18.457 26.121C18.791 25.7226 19.3594 25.3417 20.0625 25.1308C20.4609 25.0136 20.8476 24.9608 21.1992 24.9667Z" fill="white"/>
</svg>
