<svg width="248" height="319" viewBox="0 0 248 319" fill="none" xmlns="http://www.w3.org/2000/svg">
<path d="M211.2 222.481C259.5 244.456 259.5 280.081 211.2 302.056C162.9 324.031 84.525 324.031 36.225 302.056C-12.075 280.081 -12.075 244.456 36.225 222.481C84.525 200.506 162.9 200.506 211.2 222.481Z" fill="#F5F5F5"/>
<path d="M223.9 265.2C223.9 264.975 223.9 264.825 223.825 264.6C223.825 264.525 223.825 264.525 223.825 264.45C223.825 264.3 223.75 264.15 223.75 264.075C223.75 264 223.75 264 223.675 263.925C223.675 263.775 223.6 263.625 223.525 263.55C223.525 263.475 223.525 263.475 223.45 263.4C223.375 263.25 223.375 263.1 223.3 263.025C223.3 263.025 223.3 262.95 223.225 262.95C223.15 262.8 223.075 262.65 223 262.575V262.5C222.925 262.35 222.85 262.2 222.7 262.05C222.625 261.9 222.475 261.75 222.325 261.675C221.875 261.15 221.275 260.775 220.675 260.475C220.525 260.4 220.3 260.325 220.15 260.25C220.15 260.25 220.15 260.25 220.075 260.25C219.925 260.175 219.775 260.175 219.55 260.1H219.475C219.325 260.1 219.175 260.025 219.025 260.025C218.95 260.025 218.95 260.025 218.875 260.025C218.65 260.025 218.5 260.025 218.275 260.025C217.3 260.025 216.4 260.25 215.575 260.7C215.575 260.625 215.5 260.55 215.5 260.475C215.5 260.4 215.425 260.325 215.425 260.25C215.35 260.025 215.275 259.8 215.125 259.575C215.125 259.5 215.05 259.5 215.05 259.425C214.9 259.2 214.825 258.975 214.675 258.75L214.6 258.675C214.45 258.45 214.3 258.225 214.15 258C214.15 258 214.15 258 214.15 257.925C214 257.7 213.775 257.475 213.55 257.25C212.8 256.425 211.825 255.75 210.775 255.225C210.475 255.075 210.175 254.925 209.875 254.85H209.8C209.5 254.775 209.275 254.7 208.975 254.625C208.9 254.625 208.9 254.625 208.825 254.55C208.525 254.475 208.3 254.475 208 254.4C207.925 254.4 207.85 254.4 207.775 254.4C207.475 254.4 207.1 254.325 206.8 254.325C202.375 254.325 198.7 257.475 197.8 261.6C196.975 260.85 196.075 260.25 195.025 259.8C194.65 259.65 194.275 259.425 193.825 259.275C193.75 259.275 193.675 259.2 193.6 259.2C193.375 259.125 193.075 259.05 192.85 258.975C192.625 258.9 192.475 258.9 192.25 258.825C192.1 258.825 191.95 258.75 191.8 258.75C191.5 258.675 191.2 258.675 190.825 258.6C190.75 258.6 190.675 258.6 190.6 258.6C190.225 258.6 189.85 258.525 189.475 258.525C183.325 258.525 178.225 262.95 177.025 268.725C176.875 268.5 176.65 268.2 176.5 267.975C176.425 267.9 176.425 267.825 176.35 267.825C176.05 267.45 175.75 267.075 175.45 266.775C175.45 266.775 175.45 266.775 175.375 266.7C175 266.325 174.625 265.95 174.25 265.65C172.825 264.375 171.1 263.325 169.225 262.65C169.15 262.65 169.075 262.575 169 262.575C168.7 262.5 168.4 262.35 168.025 262.275C167.8 262.2 167.5 262.125 167.275 262.05C167.125 261.975 166.9 261.975 166.75 261.975C166.375 261.9 166 261.825 165.55 261.825C165.475 261.825 165.325 261.825 165.25 261.825C164.8 261.75 164.35 261.75 163.825 261.75C155.425 261.75 148.6 268.35 148.15 276.6C148.15 276.6 148.15 276.6 148.15 276.525C146.95 275.25 145.525 274.125 143.875 273.375C143.425 273.15 142.975 273 142.525 272.85C142.45 272.85 142.375 272.775 142.3 272.775C142 272.7 141.7 272.55 141.4 272.475C141.175 272.4 140.95 272.325 140.725 272.325C140.575 272.325 140.425 272.25 140.275 272.25C139.9 272.175 139.525 272.1 139.225 272.1C139.15 272.1 139.075 272.1 138.925 272.1C138.475 272.025 138.1 272.025 137.65 272.025C129.85 272.025 123.475 278.25 123.325 285.975C123.325 286.125 123.325 286.2 123.325 286.35C123.325 286.5 123.325 286.65 123.325 286.725C123.325 286.8 123.325 286.95 123.4 287.025C123.325 287.025 123.325 287.025 123.25 287.025H123.175C123.025 287.025 122.875 286.95 122.725 286.95C122.65 286.95 122.65 286.95 122.575 286.95C122.35 286.95 122.2 286.95 121.975 286.95C121.075 286.95 120.175 287.175 119.425 287.55C119.2 280.2 113.2 274.275 105.775 274.275C105.4 274.275 104.95 274.275 104.575 274.35C104.5 274.35 104.425 274.35 104.35 274.35C103.975 274.425 103.675 274.425 103.3 274.5C103.15 274.5 103 274.575 102.85 274.575C102.625 274.65 102.4 274.65 102.175 274.725C101.875 274.8 101.65 274.875 101.35 274.95C101.275 274.95 101.2 275.025 101.125 275.025C100.675 275.175 100.3 275.325 99.85 275.55C99.625 275.625 99.475 275.775 99.25 275.85C99.25 275.7 99.25 275.625 99.25 275.475C99.025 267 92.05 260.175 83.5 260.175C83.05 260.175 82.525 260.175 82.075 260.25C82 260.25 81.85 260.25 81.775 260.25C81.4 260.325 80.95 260.325 80.575 260.4C80.425 260.4 80.2 260.475 80.05 260.475C79.825 260.55 79.525 260.625 79.3 260.7H79.225C78.4 254.1 72.775 249 65.95 249C65.575 249 65.125 249 64.75 249.075C64.675 249.075 64.6 249.075 64.525 249.075C64.15 249.075 63.85 249.15 63.55 249.225C63.4 249.225 63.25 249.3 63.1 249.3C62.875 249.375 62.65 249.375 62.425 249.45C62.125 249.525 61.9 249.6 61.6 249.675C61.525 249.675 61.45 249.75 61.375 249.75C60.925 249.9 60.55 250.05 60.175 250.275C59.05 250.8 58.075 251.475 57.175 252.3C56.875 252.6 56.5 252.9 56.2 253.2C55.9 253.5 55.6 253.875 55.375 254.175C55.375 254.175 55.375 254.25 55.3 254.25C55.075 254.55 54.85 254.925 54.625 255.225C54.625 255.3 54.55 255.3 54.55 255.375C54.325 255.675 54.175 256.05 54.025 256.35C54.025 256.425 53.95 256.5 53.95 256.575C53.8 256.875 53.725 257.1 53.575 257.4C53.2 257.4 52.825 257.4 52.45 257.475C52.375 257.475 52.3 257.475 52.225 257.475C51.925 257.475 51.625 257.55 51.25 257.625C50.725 253.05 46.825 249.45 42.1 249.45C41.725 249.45 41.425 249.45 41.125 249.525C41.05 249.525 40.975 249.525 40.9 249.525C40.6 249.525 40.375 249.6 40.075 249.675C40 249.675 40 249.675 39.925 249.75C39.625 249.825 39.325 249.9 39.1 249.975H39.025C38.725 250.05 38.425 250.2 38.125 250.35C37.075 250.875 36.175 251.55 35.35 252.375C35.125 252.6 34.975 252.825 34.75 253.05C34.75 253.05 34.75 253.05 34.75 253.125C34.6 253.35 34.45 253.575 34.3 253.8L34.225 253.875C34.075 254.1 34 254.325 33.85 254.55C33.85 254.625 33.775 254.625 33.775 254.7C33.7 254.925 33.55 255.15 33.475 255.375C33.475 255.45 33.4 255.525 33.4 255.6C33.4 255.675 33.325 255.75 33.325 255.825C32.5 255.375 31.6 255.15 30.625 255.15C30.4 255.15 30.25 255.15 30.025 255.15C29.95 255.15 29.95 255.15 29.875 255.15C29.725 255.15 29.575 255.225 29.425 255.225H29.35C29.2 255.3 28.975 255.3 28.825 255.375C28.825 255.375 28.825 255.375 28.75 255.375C28.6 255.45 28.375 255.525 28.225 255.6C27.775 255.825 27.325 256.125 26.95 256.425C26.8 256.575 26.65 256.65 26.575 256.8C26.425 256.95 26.35 257.1 26.2 257.175C26.125 257.325 25.975 257.475 25.9 257.625V257.7C25.825 257.85 25.75 258 25.675 258.075C25.675 258.075 25.675 258.15 25.6 258.15C25.525 258.3 25.45 258.45 25.45 258.525C25.45 258.6 25.45 258.6 25.375 258.675C25.3 258.825 25.3 258.975 25.225 259.05C25.225 259.125 25.225 259.125 25.15 259.2C25.15 259.35 25.075 259.5 25.075 259.575C25.075 259.65 25.075 259.65 25.075 259.725C25.075 259.95 25 260.1 25 260.325C25 260.4 25 260.4 25 260.475C25 260.55 25 260.55 25 260.625C25.075 261.375 25.6 262.125 26.65 262.725C28 263.55 29.95 263.775 31.75 263.625C32.05 263.625 32.35 263.55 32.575 263.475C32.65 263.475 32.725 263.4 32.875 263.4C33.1 263.325 33.325 263.25 33.475 263.175C33.55 263.175 33.625 263.1 33.7 263.1C34 263.025 34.225 262.875 34.45 262.725C34.6 262.65 34.675 262.575 34.825 262.5C34.9 262.425 35.05 262.35 35.125 262.275C35.2 262.2 35.275 262.2 35.275 262.125C35.35 262.125 35.35 262.2 35.425 262.2C37.3 263.325 39.85 263.775 42.325 263.775C42.25 263.925 42.175 264.15 42.025 264.3C42.025 264.375 41.95 264.45 41.95 264.525C41.8 264.825 41.65 265.125 41.575 265.425C41.575 265.5 41.5 265.575 41.5 265.725C41.425 266.025 41.275 266.325 41.2 266.625C41.2 266.775 41.125 266.85 41.125 266.925C41.05 267.225 40.975 267.525 40.975 267.9C40.975 268.05 40.9 268.125 40.9 268.275C40.825 268.725 40.825 269.175 40.825 269.625C40.825 269.775 40.825 269.85 40.825 270C40.825 270.15 40.825 270.225 40.825 270.375C40.975 272.1 42.175 273.825 44.5 275.175C47.65 276.975 52 277.65 56.05 277.125C56.575 277.05 57.1 276.975 57.625 276.9C57.7 276.9 57.775 276.9 57.85 276.825C58.375 276.675 58.9 276.6 59.425 276.45C59.875 276.3 60.325 276.15 60.775 275.925C60.85 275.85 61 275.85 61.075 275.775C61.525 275.55 61.975 275.4 62.35 275.1C62.65 274.95 62.95 274.725 63.175 274.575C63.25 274.575 63.25 274.5 63.325 274.5C63.55 274.35 63.775 274.2 63.925 274.05C64.375 273.675 64.75 273.3 65.05 272.85C65.65 272.025 66.025 271.2 66.1 270.3C66.1 270.15 66.1 270.075 66.1 269.925C66.1 269.85 66.1 269.85 66.1 269.775C66.925 269.775 67.75 269.7 68.575 269.625C68.65 269.625 68.725 269.625 68.8 269.625C68.725 269.85 68.575 270.15 68.5 270.375C68.425 270.525 68.425 270.6 68.35 270.75C68.2 271.125 68.125 271.5 68.05 271.95C68.05 272.025 68.05 272.1 67.975 272.175C67.9 272.625 67.825 273.075 67.75 273.525C67.75 273.6 67.75 273.6 67.75 273.675C67.675 274.125 67.675 274.65 67.675 275.175C67.675 275.325 67.675 275.475 67.675 275.625C67.675 275.775 67.675 275.925 67.675 276.075C67.825 278.25 69.4 280.35 72.25 282.075C76.15 284.325 81.55 285.15 86.575 284.55H86.65C87.25 284.475 87.775 284.4 88.3 284.25C88.525 284.25 88.675 284.175 88.9 284.1C89.125 284.025 89.35 284.025 89.575 283.95C89.8 283.875 90.025 283.8 90.25 283.725C90.4 283.65 90.55 283.65 90.7 283.575C91.075 283.425 91.45 283.35 91.825 283.2C91.975 283.125 92.05 283.125 92.2 283.05C92.35 282.975 92.575 282.9 92.725 282.825C92.725 282.825 92.725 282.9 92.65 282.9C92.575 283.2 92.425 283.575 92.35 283.875C92.35 284.025 92.275 284.1 92.275 284.25C92.2 284.55 92.125 284.925 92.05 285.225C92.05 285.375 91.975 285.45 91.975 285.6C91.9 286.05 91.9 286.5 91.9 287.025C91.9 287.175 91.9 287.25 91.9 287.4C91.9 287.55 91.9 287.625 91.9 287.775C92.05 289.65 93.4 291.525 95.875 292.95C99.7 295.2 105.25 295.8 110.05 294.825C110.125 294.825 110.2 294.825 110.275 294.75C110.875 294.6 111.4 294.45 111.925 294.3C112.45 294.15 112.9 293.925 113.35 293.775C113.5 293.7 113.575 293.7 113.725 293.625C114.175 293.4 114.7 293.175 115.075 292.95C115.375 292.8 115.675 292.575 115.975 292.35C116.05 292.35 116.05 292.275 116.125 292.275C116.2 292.575 116.35 292.875 116.575 293.175C116.725 293.325 116.875 293.55 117.025 293.7C117.1 293.775 117.175 293.85 117.325 293.925C117.325 293.925 117.325 293.925 117.4 294C117.55 294.075 117.625 294.15 117.775 294.225C118 294.375 118.3 294.45 118.525 294.6C118.6 294.6 118.675 294.675 118.75 294.675C118.975 294.75 119.125 294.825 119.35 294.9C119.425 294.9 119.5 294.975 119.65 294.975C119.95 295.05 120.25 295.125 120.475 295.125C122.275 295.35 124.15 295.05 125.575 294.225C126.625 293.625 127.15 292.875 127.225 292.125C127.225 292.05 127.225 292.05 127.225 291.975C127.225 291.9 127.225 291.9 127.225 291.825V291.75C127.525 291.9 127.9 292.125 128.2 292.275C128.275 292.35 128.425 292.35 128.5 292.425C128.725 292.5 129.025 292.65 129.25 292.725C129.4 292.8 129.475 292.8 129.625 292.875C129.925 293.025 130.3 293.1 130.675 293.25C130.825 293.325 130.975 293.325 131.125 293.4C131.35 293.475 131.575 293.55 131.8 293.55C132.025 293.625 132.175 293.625 132.4 293.7C132.55 293.775 132.775 293.775 132.925 293.775C133.375 293.85 133.9 293.925 134.425 294C134.5 294 134.5 294 134.575 294C139.15 294.525 144.1 293.775 147.7 291.75C150.325 290.25 151.75 288.3 151.9 286.275C151.9 286.125 151.9 286.05 151.9 285.9C151.9 285.75 151.9 285.675 151.9 285.525C151.9 285 151.825 284.55 151.75 284.025C151.75 283.875 151.675 283.8 151.675 283.65C151.6 283.35 151.6 283.05 151.525 282.75L151.6 282.825C151.9 283.05 152.275 283.275 152.65 283.5C153.025 283.725 153.325 283.875 153.7 284.025C153.85 284.1 153.925 284.1 154.075 284.175C154.375 284.325 154.6 284.4 154.9 284.55C155.05 284.625 155.125 284.625 155.275 284.7C155.65 284.85 156.025 285 156.4 285.075C156.55 285.15 156.7 285.15 156.925 285.225C157.15 285.3 157.375 285.375 157.6 285.375C157.825 285.45 158.05 285.45 158.275 285.525C158.425 285.6 158.65 285.6 158.875 285.675C164.35 286.725 170.65 286.05 175 283.5C177.85 281.85 179.425 279.675 179.575 277.5C179.575 277.35 179.575 277.2 179.575 277.05C179.575 276.9 179.575 276.75 179.575 276.6C179.575 276.15 179.5 275.775 179.5 275.325L179.575 275.4C179.8 275.55 180.1 275.775 180.4 275.925C180.775 276.15 181.225 276.375 181.675 276.6C181.75 276.675 181.9 276.675 181.975 276.75C182.425 276.9 182.875 277.125 183.325 277.275C183.85 277.425 184.375 277.575 184.9 277.65C184.975 277.65 185.05 277.65 185.125 277.725C189.55 278.625 194.725 278.025 198.325 276C200.65 274.65 201.85 272.925 202 271.2C202 271.05 202 270.975 202 270.825C202 270.675 202 270.6 202 270.45C202 270 201.925 269.55 201.925 269.1C201.925 268.95 201.85 268.875 201.85 268.725C201.775 268.425 201.775 268.125 201.7 267.825C201.7 267.75 201.625 267.675 201.625 267.6C201.85 267.675 202.075 267.75 202.225 267.825C202.6 267.975 202.975 268.05 203.35 268.125C203.425 268.125 203.425 268.125 203.5 268.125C206.725 268.8 210.475 268.35 213.025 266.85C213.1 266.85 213.1 266.775 213.175 266.775C213.325 266.925 213.475 267.075 213.625 267.15C213.775 267.225 213.85 267.3 214 267.375C214.225 267.525 214.525 267.6 214.75 267.75C214.825 267.75 214.9 267.825 214.975 267.825C215.2 267.9 215.35 267.975 215.575 268.05C215.65 268.05 215.725 268.125 215.875 268.125C216.175 268.2 216.4 268.275 216.7 268.275C218.5 268.5 220.375 268.2 221.8 267.375C222.85 266.775 223.375 266.025 223.45 265.275C223.45 265.2 223.45 265.2 223.45 265.125C223.9 265.275 223.9 265.275 223.9 265.2Z" fill="#E0E0E0"/>
<path d="M210.5 227.099L203.3 223.274C203.3 223.274 202.775 212.249 203.6 203.549C204.8 191.324 213.95 177.074 223.325 180.524C232.775 183.974 218.975 196.499 215.9 206.849C212.9 217.274 210.5 227.099 210.5 227.099Z" fill="#47A979"/>
<path opacity="0.3" d="M210.5 227.099L203.3 223.274C203.3 223.274 202.775 212.249 203.6 203.549C204.8 191.324 213.95 177.074 223.325 180.524C232.775 183.974 218.975 196.499 215.9 206.849C212.9 217.274 210.5 227.099 210.5 227.099Z" fill="black"/>
<path d="M206.975 225.824C207.125 225.824 207.275 225.674 207.275 225.524C206.375 198.299 219.875 184.574 220.025 184.424C220.175 184.274 220.175 184.124 220.025 183.974C219.875 183.824 219.725 183.824 219.575 183.974C219.425 184.124 205.7 197.999 206.6 225.524C206.675 225.674 206.825 225.824 206.975 225.824Z" fill="white"/>
<path d="M214.175 229.274L210.425 227.099C210.425 227.099 209.225 218.399 212.75 208.949C216.2 199.574 225.2 194.399 229.325 195.824C234.35 197.549 234.425 202.349 232.55 205.499C230.375 209.249 216.875 218.699 214.175 229.274Z" fill="#47A979"/>
<path opacity="0.1" d="M214.175 229.274L210.425 227.099C210.425 227.099 209.225 218.399 212.75 208.949C216.2 199.574 225.2 194.399 229.325 195.824C234.35 197.549 234.425 202.349 232.55 205.499C230.375 209.249 216.875 218.699 214.175 229.274Z" fill="black"/>
<path d="M212.225 228.449C212.375 228.449 212.525 228.299 212.525 228.149C212.45 210.899 228.65 199.274 228.8 199.199C228.95 199.124 228.95 198.899 228.875 198.749C228.8 198.599 228.575 198.599 228.425 198.674C228.275 198.824 211.85 210.599 211.925 228.149C211.925 228.299 212.075 228.449 212.225 228.449Z" fill="white"/>
<path d="M36.425 224.924L41.075 222.224C41.075 222.224 43.325 209.849 41.675 199.199C39.35 184.274 29.15 179.099 25.475 180.599C21.8 182.099 20.9 186.524 27.575 195.149C31.475 200.324 36.575 211.049 36.425 224.924Z" fill="#4FA979"/>
<g opacity="0.15">
<path d="M36.425 224.924L41.075 222.224C41.075 222.224 43.325 209.849 41.675 199.199C39.35 184.274 29.15 179.099 25.475 180.599C21.8 182.099 20.9 186.524 27.575 195.149C31.475 200.324 36.575 211.049 36.425 224.924Z" fill="black"/>
</g>
<path d="M38.0751 218.999C37.85 218.999 37.7001 218.774 37.7751 218.624C39.7251 204.599 34.1 189.299 27.725 183.149C27.575 182.999 27.575 182.774 27.725 182.699C27.875 182.549 28.1001 182.549 28.1751 182.699C34.6251 188.999 40.3251 204.599 38.3751 218.774C38.4501 218.849 38.3 218.999 38.0751 218.999Z" fill="white"/>
<path d="M23.45 232.424C22.7 232.874 21.2 231.899 20.6 231.524C19.625 230.849 18.8 229.874 18.275 228.824C17.675 227.549 17.525 226.199 17.675 224.849C17.75 224.099 17.975 223.424 18.2 222.749C18.425 222.074 18.575 221.399 18.8 220.724C19.025 220.049 19.175 219.374 19.1 218.624C18.95 217.199 17.675 216.224 16.55 215.399C15.275 214.499 14 213.224 14 211.574C14 210.299 14.675 209.099 15.5 208.049C16.325 206.999 17.3 206.099 17.975 205.049C18.5 204.299 18.875 203.324 18.8 202.424C18.725 201.824 18.5 201.299 18.2 200.774C17.6 199.649 16.85 198.674 16.4 197.474C16.025 196.274 16.025 194.849 17 193.949C17.75 193.274 18.875 193.124 19.925 193.199C20.9 193.274 21.8 193.724 22.625 194.174C25.325 195.674 26.825 198.824 29.675 199.949C30.8 200.399 32 200.474 33.125 200.774C34.25 201.074 35.45 201.674 35.975 202.724C37.025 204.824 35.075 207.374 35.825 209.624C36.5 211.574 38.375 212.324 39.425 214.124C39.875 214.874 40.025 215.774 39.95 216.674C39.8 218.174 39.575 219.299 38.9 221.024C38.3 222.449 36.5 224.924 36.5 224.924C36.35 224.999 23.525 232.349 23.45 232.424Z" fill="#4FA979"/>
<path d="M31.0251 228.374C30.8001 228.374 30.6501 228.224 30.7251 227.999C31.2501 214.724 25.0251 200.099 20.5251 195.899C20.3751 195.749 20.3751 195.599 20.5251 195.449C20.6751 195.299 20.8251 195.299 20.9751 195.449C25.6251 199.799 32.0001 214.649 31.4001 228.074C31.3251 228.224 31.1751 228.374 31.0251 228.374Z" fill="white"/>
<path d="M29.0751 212.699H29.0001C24.7251 211.349 19.4751 211.124 19.4001 211.124C19.2501 211.124 19.1001 210.974 19.1001 210.749C19.1001 210.599 19.2501 210.449 19.4751 210.449C19.5501 210.449 24.9501 210.674 29.2251 212.024C29.3751 212.099 29.5251 212.249 29.4501 212.474C29.3001 212.624 29.1501 212.699 29.0751 212.699Z" fill="white"/>
<path d="M121.375 273.75C145.938 273.75 165.85 265.59 165.85 255.525C165.85 245.46 145.938 237.3 121.375 237.3C96.8123 237.3 76.9001 245.46 76.9001 255.525C76.9001 265.59 96.8123 273.75 121.375 273.75Z" fill="#1F92CC"/>
<path d="M121.375 273.75C145.938 273.75 165.85 265.59 165.85 255.525C165.85 245.46 145.938 237.3 121.375 237.3C96.8123 237.3 76.9001 245.46 76.9001 255.525C76.9001 265.59 96.8123 273.75 121.375 273.75Z" fill="#1F92CC"/>
<path opacity="0.9" d="M121.375 275.25C147.968 275.25 169.525 266.419 169.525 255.525C169.525 244.631 147.968 235.8 121.375 235.8C94.7826 235.8 73.2251 244.631 73.2251 255.525C73.2251 266.419 94.7826 275.25 121.375 275.25Z" fill="white"/>
<path d="M76 239.325C76.3 228.675 85 220.125 95.8 220.125C106.525 220.125 115.3 228.675 115.6 239.325C115.6 239.55 115.6 239.7 115.6 239.85C115.6 240.075 115.6 240.225 115.6 240.375C115.375 243.15 113.425 245.775 109.825 247.875C102.1 252.3 89.575 252.3 81.85 247.875C78.25 245.775 76.3 243.075 76.075 240.375C76.075 240.15 76.075 240 76.075 239.85C76 239.7 76 239.475 76 239.325Z" fill="#1F92CC"/>
<path opacity="0.8" d="M76 239.325C76.3 228.675 85 220.125 95.8 220.125C106.525 220.125 115.3 228.675 115.6 239.325C115.6 239.55 115.6 239.7 115.6 239.85C115.6 240.075 115.6 240.225 115.6 240.375C115.375 243.15 113.425 245.775 109.825 247.875C102.1 252.3 89.575 252.3 81.85 247.875C78.25 245.775 76.3 243.075 76.075 240.375C76.075 240.15 76.075 240 76.075 239.85C76 239.7 76 239.475 76 239.325Z" fill="white"/>
<path opacity="0.3" d="M87.175 222.075C89.8 220.8 92.65 220.125 95.725 220.125C106.45 220.125 115.225 228.675 115.525 239.325C115.525 239.55 115.525 239.7 115.525 239.85C115.525 240.075 115.525 240.225 115.525 240.375C115.3 243.15 113.35 245.775 109.75 247.875C106.9 249.525 103.45 250.5 99.85 250.95C104.95 250.05 108.325 244.35 106.75 237.975C104.875 230.775 97.45 220.2 87.175 222.075Z" fill="white"/>
<path opacity="0.1" d="M76 240.45C76 240.225 76 240.075 76 239.925C76 239.7 76 239.55 76 239.4C76.15 233.7 78.7 228.6 82.675 225.075C80.5 227.25 75.775 235.575 80.95 241.95C84.4 246.15 100.6 252.075 113.95 244.425C112.975 245.7 111.625 246.9 109.75 247.95C102.025 252.375 89.5 252.375 81.775 247.95C78.175 245.85 76.225 243.15 76 240.45Z" fill="#1F92CC"/>
<path opacity="0.5" d="M102.975 223.227C99.979 221.911 96.8346 222.474 95.9519 224.484C95.0691 226.494 96.7823 229.19 99.7784 230.506C102.775 231.822 105.919 231.259 106.802 229.249C107.684 227.239 105.971 224.543 102.975 223.227Z" fill="white"/>
<path opacity="0.5" d="M110.646 231.851C109.356 231.285 107.933 231.687 107.466 232.749C107 233.81 107.667 235.13 108.957 235.697C110.246 236.263 111.67 235.861 112.136 234.799C112.602 233.737 111.935 232.417 110.646 231.851Z" fill="white"/>
<path d="M158.65 239.025C158.425 229.95 151 222.675 141.85 222.675C132.775 222.675 125.275 229.95 125.05 239.025C125.05 239.175 125.05 239.325 125.05 239.475C125.05 239.625 125.05 239.775 125.05 239.925C125.275 242.25 126.85 244.5 130 246.3C136.525 250.05 147.175 250.05 153.775 246.3C156.85 244.5 158.5 242.25 158.65 239.925C158.65 239.775 158.65 239.625 158.65 239.475C158.725 239.325 158.725 239.175 158.65 239.025Z" fill="#1F92CC"/>
<path opacity="0.8" d="M158.65 239.025C158.425 229.95 151 222.675 141.85 222.675C132.775 222.675 125.275 229.95 125.05 239.025C125.05 239.175 125.05 239.325 125.05 239.475C125.05 239.625 125.05 239.775 125.05 239.925C125.275 242.25 126.85 244.5 130 246.3C136.525 250.05 147.175 250.05 153.775 246.3C156.85 244.5 158.5 242.25 158.65 239.925C158.65 239.775 158.65 239.625 158.65 239.475C158.725 239.325 158.725 239.175 158.65 239.025Z" fill="white"/>
<path opacity="0.3" d="M149.2 224.325C147.025 223.275 144.55 222.675 141.925 222.675C132.85 222.675 125.35 229.95 125.125 239.025C125.125 239.175 125.125 239.325 125.125 239.475C125.125 239.625 125.125 239.775 125.125 239.925C125.35 242.25 126.925 244.5 130.075 246.3C132.475 247.65 135.4 248.55 138.475 248.925C134.125 248.175 131.275 243.3 132.625 237.975C134.2 231.75 140.5 222.75 149.2 224.325Z" fill="white"/>
<path opacity="0.1" d="M158.65 239.925C158.65 239.775 158.65 239.625 158.65 239.475C158.65 239.325 158.65 239.175 158.65 239.025C158.5 234.15 156.325 229.875 152.95 226.875C154.75 228.75 158.8 235.8 154.45 241.2C151.525 244.725 137.8 249.825 126.475 243.3C127.3 244.425 128.5 245.4 130.075 246.3C136.6 250.05 147.25 250.05 153.85 246.3C156.85 244.575 158.5 242.25 158.65 239.925Z" fill="#1F92CC"/>
<path opacity="0.5" d="M138.475 231.545C141.016 230.429 142.468 228.141 141.719 226.434C140.969 224.727 138.302 224.249 135.761 225.365C133.22 226.48 131.767 228.769 132.517 230.475C133.266 232.182 135.934 232.661 138.475 231.545Z" fill="white"/>
<path opacity="0.5" d="M130.728 235.953C131.828 235.47 132.395 234.34 131.996 233.43C131.596 232.52 130.38 232.174 129.281 232.657C128.181 233.14 127.613 234.269 128.013 235.179C128.413 236.089 129.628 236.436 130.728 235.953Z" fill="white"/>
<path d="M175.075 240.975C174.925 234.975 169.975 230.175 163.975 230.175C157.975 230.175 153.025 234.975 152.875 240.975C152.875 241.05 152.875 241.2 152.875 241.275C152.875 241.35 152.875 241.5 152.875 241.575C153.025 243.075 154.075 244.65 156.1 245.775C160.45 248.25 167.5 248.25 171.85 245.775C173.875 244.575 175 243.075 175.075 241.575C175.075 241.5 175.075 241.35 175.075 241.275C175.075 241.125 175.075 241.05 175.075 240.975Z" fill="#1F92CC"/>
<path opacity="0.9" d="M175.075 240.975C174.925 234.975 169.975 230.175 163.975 230.175C157.975 230.175 153.025 234.975 152.875 240.975C152.875 241.05 152.875 241.2 152.875 241.275C152.875 241.35 152.875 241.5 152.875 241.575C153.025 243.075 154.075 244.65 156.1 245.775C160.45 248.25 167.5 248.25 171.85 245.775C173.875 244.575 175 243.075 175.075 241.575C175.075 241.5 175.075 241.35 175.075 241.275C175.075 241.125 175.075 241.05 175.075 240.975Z" fill="white"/>
<path opacity="0.5" d="M168.775 231.225C167.35 230.55 165.7 230.1 163.975 230.1C157.975 230.1 153.025 234.9 152.875 240.9C152.875 240.975 152.875 241.125 152.875 241.2C152.875 241.275 152.875 241.425 152.875 241.5C153.025 243 154.075 244.575 156.1 245.7C157.675 246.6 159.625 247.2 161.65 247.425C158.8 246.9 156.925 243.675 157.825 240.15C158.875 236.175 163 230.175 168.775 231.225Z" fill="white"/>
<path opacity="0.1" d="M175.075 241.575C175.075 241.5 175.075 241.35 175.075 241.275C175.075 241.2 175.075 241.05 175.075 240.975C175 237.75 173.575 234.9 171.325 232.95C172.525 234.225 175.225 238.875 172.3 242.4C170.35 244.725 161.275 248.1 153.775 243.825C154.3 244.575 155.125 245.25 156.1 245.85C160.45 248.325 167.5 248.325 171.85 245.85C173.875 244.65 174.925 243.075 175.075 241.575Z" fill="#1F92CC"/>
<path opacity="0.5" d="M161.741 236.058C163.41 235.326 164.358 233.809 163.858 232.671C163.358 231.534 161.6 231.205 159.932 231.938C158.263 232.671 157.315 234.188 157.815 235.325C158.315 236.463 160.072 236.791 161.741 236.058Z" fill="white"/>
<path opacity="0.5" d="M156.579 238.943C157.3 238.626 157.668 237.878 157.402 237.271C157.135 236.664 156.335 236.429 155.614 236.745C154.894 237.062 154.526 237.81 154.792 238.417C155.059 239.024 155.859 239.259 156.579 238.943Z" fill="white"/>
<path d="M198.775 245.775C198.55 237.6 191.875 231.075 183.7 231.075C175.525 231.075 168.85 237.6 168.625 245.775C168.625 245.925 168.625 246.075 168.625 246.225C168.625 246.375 168.625 246.525 168.625 246.675C168.775 248.775 170.275 250.8 173.05 252.45C178.9 255.825 188.5 255.825 194.425 252.45C197.2 250.875 198.625 248.775 198.85 246.675C198.85 246.525 198.85 246.375 198.85 246.225C198.775 246.075 198.775 245.925 198.775 245.775Z" fill="#1F92CC"/>
<path opacity="0.7" d="M198.775 245.775C198.55 237.6 191.875 231.075 183.7 231.075C175.525 231.075 168.85 237.6 168.625 245.775C168.625 245.925 168.625 246.075 168.625 246.225C168.625 246.375 168.625 246.525 168.625 246.675C168.775 248.775 170.275 250.8 173.05 252.45C178.9 255.825 188.5 255.825 194.425 252.45C197.2 250.875 198.625 248.775 198.85 246.675C198.85 246.525 198.85 246.375 198.85 246.225C198.775 246.075 198.775 245.925 198.775 245.775Z" fill="white"/>
<path opacity="0.3" d="M190.225 232.575C188.275 231.6 186.025 231.075 183.7 231.075C175.525 231.075 168.85 237.6 168.625 245.775C168.625 245.925 168.625 246.075 168.625 246.225C168.625 246.375 168.625 246.525 168.625 246.675C168.775 248.775 170.275 250.8 173.05 252.45C175.225 253.725 177.85 254.475 180.625 254.85C176.725 254.175 174.175 249.825 175.375 244.95C176.725 239.25 182.35 231.15 190.225 232.575Z" fill="white"/>
<path opacity="0.1" d="M198.775 246.6C198.775 246.45 198.775 246.3 198.775 246.15C198.775 246 198.775 245.85 198.775 245.7C198.7 241.35 196.675 237.45 193.675 234.825C195.325 236.475 198.925 242.85 195.025 247.725C192.4 250.875 180.025 255.45 169.9 249.6C170.65 250.575 171.7 251.475 173.125 252.3C178.975 255.675 188.575 255.675 194.5 252.3C197.125 250.725 198.55 248.7 198.775 246.6Z" fill="#1F92CC"/>
<path opacity="0.5" d="M180.596 239.15C182.871 238.15 184.162 236.08 183.48 234.525C182.797 232.97 180.398 232.519 178.123 233.519C175.847 234.518 174.556 236.589 175.239 238.144C175.922 239.698 178.32 240.149 180.596 239.15Z" fill="white"/>
<path opacity="0.5" d="M173.623 243.016C174.609 242.583 175.124 241.586 174.775 240.79C174.425 239.993 173.342 239.699 172.356 240.132C171.37 240.565 170.854 241.562 171.204 242.358C171.554 243.155 172.637 243.449 173.623 243.016Z" fill="white"/>
<path d="M139.375 188.325C139.375 193.8 136.9 198.75 133 202.05C130.375 204.3 128.725 207.525 128.725 210.975V254.175C128.725 255.3 127.975 256.35 126.55 257.175C125.725 257.625 124.825 258 123.85 258.15C122.2 258.45 120.4 258.45 118.825 258.15C117.85 257.925 116.875 257.625 116.125 257.175C114.7 256.35 113.95 255.225 113.95 254.175V210.9C113.95 207.45 112.3 204.3 109.675 202.05C105.7 198.75 103.225 193.725 103.3 188.175C103.375 178.725 110.95 170.775 120.325 170.325C130.75 169.725 139.375 178.05 139.375 188.325Z" fill="#1F92CC"/>
<path opacity="0.5" d="M139.375 188.325C139.375 193.8 136.9 198.75 133 202.05C130.375 204.3 128.725 207.525 128.725 210.975V254.175C128.725 255.3 127.975 256.35 126.55 257.175C125.725 257.625 124.825 258 123.85 258.15C122.2 258.45 120.4 258.45 118.825 258.15C117.85 257.925 116.875 257.625 116.125 257.175C114.7 256.35 113.95 255.225 113.95 254.175V210.9C113.95 207.45 112.3 204.3 109.675 202.05C105.7 198.75 103.225 193.725 103.3 188.175C103.375 178.725 110.95 170.775 120.325 170.325C130.75 169.725 139.375 178.05 139.375 188.325Z" fill="white"/>
<path d="M131.425 188.325C131.425 191.7 129.775 194.7 127.15 196.5C124.975 198 123.85 200.55 123.85 203.175V255.3C123.85 256.725 122.725 257.85 121.375 257.85C121.375 257.85 121.375 257.85 121.3 257.85C119.875 257.85 118.825 256.65 118.825 255.3V203.1C118.825 200.55 117.625 198 115.525 196.5C112.9 194.625 111.175 191.55 111.25 188.025C111.4 182.775 115.675 178.425 120.925 178.275C126.7 178.05 131.425 182.625 131.425 188.325Z" fill="#1F92CC"/>
<path opacity="0.7" d="M131.425 188.325C131.425 191.7 129.775 194.7 127.15 196.5C124.975 198 123.85 200.55 123.85 203.175V255.3C123.85 256.725 122.725 257.85 121.375 257.85C121.375 257.85 121.375 257.85 121.3 257.85C119.875 257.85 118.825 256.65 118.825 255.3V203.1C118.825 200.55 117.625 198 115.525 196.5C112.9 194.625 111.175 191.55 111.25 188.025C111.4 182.775 115.675 178.425 120.925 178.275C126.7 178.05 131.425 182.625 131.425 188.325Z" fill="white"/>
<path opacity="0.8" d="M130.525 200.775C132.637 200.775 134.35 199.062 134.35 196.95C134.35 194.838 132.637 193.125 130.525 193.125C128.412 193.125 126.7 194.838 126.7 196.95C126.7 199.062 128.412 200.775 130.525 200.775Z" fill="white"/>
<path opacity="0.7" d="M128.875 188.475C130.449 188.475 131.725 187.199 131.725 185.625C131.725 184.051 130.449 182.775 128.875 182.775C127.301 182.775 126.025 184.051 126.025 185.625C126.025 187.199 127.301 188.475 128.875 188.475Z" fill="white"/>
<path opacity="0.8" d="M121.975 182.475C122.762 182.475 123.4 181.837 123.4 181.05C123.4 180.263 122.762 179.625 121.975 179.625C121.188 179.625 120.55 180.263 120.55 181.05C120.55 181.837 121.188 182.475 121.975 182.475Z" fill="white"/>
<path opacity="0.7" d="M112.975 186.675C115.129 186.675 116.875 184.929 116.875 182.775C116.875 180.621 115.129 178.875 112.975 178.875C110.821 178.875 109.075 180.621 109.075 182.775C109.075 184.929 110.821 186.675 112.975 186.675Z" fill="white"/>
<path opacity="0.8" d="M110.35 191.55C111.344 191.55 112.15 190.744 112.15 189.75C112.15 188.756 111.344 187.95 110.35 187.95C109.356 187.95 108.55 188.756 108.55 189.75C108.55 190.744 109.356 191.55 110.35 191.55Z" fill="white"/>
<path opacity="0.7" d="M112.225 200.175C114.172 200.175 115.75 198.597 115.75 196.65C115.75 194.703 114.172 193.125 112.225 193.125C110.278 193.125 108.7 194.703 108.7 196.65C108.7 198.597 110.278 200.175 112.225 200.175Z" fill="white"/>
<path opacity="0.7" d="M119.875 204.225C121.201 204.225 122.275 203.15 122.275 201.825C122.275 200.5 121.201 199.425 119.875 199.425C118.55 199.425 117.475 200.5 117.475 201.825C117.475 203.15 118.55 204.225 119.875 204.225Z" fill="white"/>
<path opacity="0.7" d="M106.3 186.825C106.963 186.825 107.5 186.288 107.5 185.625C107.5 184.962 106.963 184.425 106.3 184.425C105.637 184.425 105.1 184.962 105.1 185.625C105.1 186.288 105.637 186.825 106.3 186.825Z" fill="white"/>
<path opacity="0.8" d="M133.6 182.175C134.511 182.175 135.25 181.436 135.25 180.525C135.25 179.614 134.511 178.875 133.6 178.875C132.689 178.875 131.95 179.614 131.95 180.525C131.95 181.436 132.689 182.175 133.6 182.175Z" fill="white"/>
<path opacity="0.7" d="M135.175 190.125C136.086 190.125 136.825 189.386 136.825 188.475C136.825 187.564 136.086 186.825 135.175 186.825C134.264 186.825 133.525 187.564 133.525 188.475C133.525 189.386 134.264 190.125 135.175 190.125Z" fill="white"/>
<path opacity="0.8" d="M119.875 191.775C120.786 191.775 121.525 191.036 121.525 190.125C121.525 189.214 120.786 188.475 119.875 188.475C118.964 188.475 118.225 189.214 118.225 190.125C118.225 191.036 118.964 191.775 119.875 191.775Z" fill="white"/>
<path d="M215.8 248.4C215.65 243.45 211.6 239.475 206.575 239.475C201.55 239.475 197.5 243.45 197.35 248.4C197.35 248.475 197.35 248.55 197.35 248.625C197.35 248.7 197.35 248.775 197.35 248.85C197.425 250.125 198.325 251.4 200.05 252.375C203.65 254.475 209.5 254.475 213.1 252.375C214.75 251.4 215.65 250.125 215.8 248.85C215.8 248.775 215.8 248.7 215.8 248.625C215.8 248.55 215.8 248.475 215.8 248.4Z" fill="#1F92CC"/>
<path opacity="0.5" d="M215.8 248.4C215.65 243.45 211.6 239.475 206.575 239.475C201.55 239.475 197.5 243.45 197.35 248.4C197.35 248.475 197.35 248.55 197.35 248.625C197.35 248.7 197.35 248.775 197.35 248.85C197.425 250.125 198.325 251.4 200.05 252.375C203.65 254.475 209.5 254.475 213.1 252.375C214.75 251.4 215.65 250.125 215.8 248.85C215.8 248.775 215.8 248.7 215.8 248.625C215.8 248.55 215.8 248.475 215.8 248.4Z" fill="white"/>
<path opacity="0.5" d="M210.55 240.375C209.35 239.775 208 239.475 206.575 239.475C201.55 239.475 197.5 243.45 197.35 248.4C197.35 248.475 197.35 248.55 197.35 248.625C197.35 248.7 197.35 248.775 197.35 248.85C197.425 250.125 198.325 251.4 200.05 252.375C201.325 253.125 202.975 253.575 204.7 253.8C202.3 253.425 200.8 250.725 201.475 247.8C202.375 244.425 205.825 239.475 210.55 240.375Z" fill="white"/>
<path opacity="0.2" d="M215.8 248.925C215.8 248.85 215.8 248.775 215.8 248.7C215.8 248.625 215.8 248.55 215.8 248.475C215.725 245.85 214.525 243.45 212.65 241.8C213.625 242.85 215.875 246.675 213.475 249.675C211.9 251.625 204.325 254.4 198.175 250.8C198.625 251.4 199.3 252 200.125 252.45C203.725 254.55 209.575 254.55 213.175 252.45C214.75 251.4 215.65 250.2 215.8 248.925Z" fill="#1F92CC"/>
<path opacity="0.5" d="M204.711 244.348C206.114 243.732 206.914 242.464 206.497 241.516C206.081 240.568 204.606 240.299 203.203 240.915C201.799 241.531 200.999 242.799 201.416 243.748C201.832 244.696 203.307 244.965 204.711 244.348Z" fill="white"/>
<path opacity="0.5" d="M200.438 246.667C201.045 246.4 201.361 245.784 201.144 245.291C200.928 244.798 200.26 244.615 199.654 244.881C199.047 245.148 198.73 245.763 198.947 246.256C199.163 246.749 199.831 246.933 200.438 246.667Z" fill="white"/>
<path d="M202 255.975C201.85 249.15 196.225 243.675 189.325 243.675C182.425 243.675 176.875 249.15 176.65 255.975C176.65 256.125 176.65 256.2 176.65 256.35C176.65 256.5 176.65 256.575 176.65 256.725C176.8 258.45 178 260.175 180.325 261.525C185.275 264.375 193.3 264.375 198.25 261.525C200.575 260.175 201.775 258.45 201.925 256.725C201.925 256.575 201.925 256.5 201.925 256.35C202 256.2 202 256.05 202 255.975Z" fill="#1F92CC"/>
<path opacity="0.6" d="M202 255.975C201.85 249.15 196.225 243.675 189.325 243.675C182.425 243.675 176.875 249.15 176.65 255.975C176.65 256.125 176.65 256.2 176.65 256.35C176.65 256.5 176.65 256.575 176.65 256.725C176.8 258.45 178 260.175 180.325 261.525C185.275 264.375 193.3 264.375 198.25 261.525C200.575 260.175 201.775 258.45 201.925 256.725C201.925 256.575 201.925 256.5 201.925 256.35C202 256.2 202 256.05 202 255.975Z" fill="white"/>
<path opacity="0.5" d="M194.8 244.875C193.15 244.05 191.275 243.6 189.325 243.6C182.425 243.6 176.875 249.075 176.65 255.9C176.65 256.05 176.65 256.125 176.65 256.275C176.65 256.425 176.65 256.5 176.65 256.65C176.8 258.375 178 260.1 180.325 261.45C182.125 262.5 184.375 263.175 186.7 263.4C183.4 262.8 181.3 259.2 182.275 255.15C183.475 250.5 188.275 243.675 194.8 244.875Z" fill="white"/>
<path opacity="0.1" d="M202 256.65C202 256.5 202 256.425 202 256.275C202 256.125 202 256.05 202 255.9C201.925 252.225 200.275 249 197.725 246.75C199.075 248.175 202.15 253.5 198.85 257.55C196.675 260.25 186.25 264.075 177.7 259.125C178.3 259.95 179.2 260.7 180.4 261.375C185.35 264.225 193.375 264.225 198.325 261.375C200.65 260.175 201.85 258.45 202 256.65Z" fill="#1F92CC"/>
<path opacity="0.3" d="M186.757 250.371C188.653 249.539 189.731 247.818 189.165 246.529C188.599 245.239 186.602 244.869 184.706 245.702C182.81 246.535 181.732 248.255 182.298 249.545C182.864 250.834 184.86 251.204 186.757 250.371Z" fill="white"/>
<path opacity="0.3" d="M180.933 253.599C181.767 253.233 182.201 252.382 181.901 251.7C181.601 251.017 180.682 250.761 179.847 251.127C179.013 251.494 178.58 252.344 178.88 253.027C179.179 253.709 180.099 253.966 180.933 253.599Z" fill="white"/>
<path d="M179.575 262.125C179.35 253.65 172.375 246.825 163.825 246.825C155.275 246.825 148.3 253.65 148.075 262.125C148.075 262.275 148.075 262.425 148.075 262.575C148.075 262.725 148.075 262.875 148.075 263.025C148.225 265.2 149.8 267.3 152.65 269.025C158.8 272.55 168.775 272.55 174.925 269.025C177.775 267.375 179.35 265.2 179.5 263.025C179.5 262.875 179.5 262.725 179.5 262.575C179.5 262.425 179.575 262.275 179.575 262.125Z" fill="#1F92CC"/>
<path opacity="0.8" d="M179.575 262.125C179.35 253.65 172.375 246.825 163.825 246.825C155.275 246.825 148.3 253.65 148.075 262.125C148.075 262.275 148.075 262.425 148.075 262.575C148.075 262.725 148.075 262.875 148.075 263.025C148.225 265.2 149.8 267.3 152.65 269.025C158.8 272.55 168.775 272.55 174.925 269.025C177.775 267.375 179.35 265.2 179.5 263.025C179.5 262.875 179.5 262.725 179.5 262.575C179.5 262.425 179.575 262.275 179.575 262.125Z" fill="white"/>
<path opacity="0.3" d="M170.65 248.4C168.55 247.425 166.3 246.825 163.825 246.825C155.275 246.825 148.3 253.65 148.075 262.125C148.075 262.275 148.075 262.425 148.075 262.575C148.075 262.725 148.075 262.875 148.075 263.025C148.225 265.2 149.8 267.3 152.65 269.025C154.9 270.3 157.675 271.125 160.525 271.5C156.475 270.825 153.775 266.25 155.05 261.225C156.625 255.3 162.475 246.9 170.65 248.4Z" fill="white"/>
<path opacity="0.1" d="M179.575 263.025C179.575 262.875 179.575 262.725 179.575 262.575C179.575 262.425 179.575 262.275 179.575 262.125C179.425 257.625 177.4 253.575 174.25 250.8C175.975 252.525 179.725 259.2 175.6 264.225C172.9 267.525 160 272.25 149.425 266.175C150.175 267.225 151.3 268.125 152.725 269.025C158.875 272.55 168.85 272.55 175 269.025C177.85 267.3 179.35 265.2 179.575 263.025Z" fill="#1F92CC"/>
<path opacity="0.3" d="M160.681 255.167C163.07 254.117 164.44 251.975 163.741 250.383C163.041 248.79 160.537 248.349 158.148 249.398C155.758 250.448 154.389 252.59 155.088 254.182C155.788 255.775 158.292 256.216 160.681 255.167Z" fill="white"/>
<path opacity="0.3" d="M153.387 259.195C154.411 258.746 154.944 257.705 154.578 256.87C154.212 256.036 153.084 255.724 152.06 256.174C151.036 256.623 150.503 257.664 150.87 258.499C151.236 259.333 152.363 259.645 153.387 259.195Z" fill="white"/>
<path d="M123.25 259.05C123.1 251.925 117.25 246.225 110.125 246.225C103 246.225 97.15 251.925 97 259.05C97 259.2 97 259.275 97 259.425C97 259.575 97 259.65 97 259.8C97.15 261.6 98.425 263.4 100.825 264.825C105.925 267.825 114.325 267.825 119.425 264.825C121.825 263.4 123.1 261.675 123.25 259.8C123.25 259.65 123.25 259.575 123.25 259.425C123.325 259.275 123.325 259.2 123.25 259.05Z" fill="#1F92CC"/>
<path opacity="0.8" d="M123.25 259.05C123.1 251.925 117.25 246.225 110.125 246.225C103 246.225 97.15 251.925 97 259.05C97 259.2 97 259.275 97 259.425C97 259.575 97 259.65 97 259.8C97.15 261.6 98.425 263.4 100.825 264.825C105.925 267.825 114.325 267.825 119.425 264.825C121.825 263.4 123.1 261.675 123.25 259.8C123.25 259.65 123.25 259.575 123.25 259.425C123.325 259.275 123.325 259.2 123.25 259.05Z" fill="white"/>
<path opacity="0.3" d="M115.825 247.575C114.1 246.75 112.15 246.225 110.125 246.225C103 246.225 97.15 251.925 97 259.05C97 259.2 97 259.275 97 259.425C97 259.575 97 259.65 97 259.8C97.15 261.6 98.425 263.4 100.825 264.825C102.7 265.875 105.025 266.625 107.425 266.85C104.05 266.25 101.8 262.425 102.85 258.225C104.05 253.35 109 246.3 115.825 247.575Z" fill="white"/>
<path opacity="0.1" d="M123.25 259.8C123.25 259.65 123.25 259.575 123.25 259.425C123.25 259.275 123.25 259.2 123.25 259.05C123.175 255.225 121.45 251.85 118.75 249.525C120.175 251.025 123.325 256.5 119.875 260.775C117.625 263.55 106.825 267.525 97.9751 262.425C98.6501 263.25 99.5501 264.075 100.75 264.825C105.85 267.825 114.25 267.825 119.35 264.825C121.825 263.4 123.1 261.6 123.25 259.8Z" fill="#1F92CC"/>
<path opacity="0.3" d="M107.44 253.213C109.412 252.347 110.538 250.569 109.955 249.241C109.373 247.914 107.301 247.54 105.329 248.406C103.357 249.272 102.231 251.05 102.814 252.378C103.397 253.705 105.468 254.079 107.44 253.213Z" fill="white"/>
<path opacity="0.3" d="M101.386 256.602C102.258 256.219 102.722 255.355 102.423 254.673C102.123 253.99 101.173 253.747 100.3 254.13C99.4281 254.513 98.964 255.377 99.2638 256.06C99.5636 256.743 100.514 256.985 101.386 256.602Z" fill="white"/>
<path d="M145.15 261.75C145 255.525 139.9 250.5 133.6 250.5C127.3 250.5 122.2 255.525 122.05 261.75C122.05 261.825 122.05 261.975 122.05 262.05C122.05 262.125 122.05 262.275 122.05 262.35C122.2 263.925 123.325 265.5 125.425 266.775C129.925 269.4 137.275 269.4 141.775 266.775C143.875 265.575 145 264 145.15 262.35C145.15 262.275 145.15 262.125 145.15 262.05C145.15 261.975 145.15 261.9 145.15 261.75Z" fill="#1F92CC"/>
<path opacity="0.8" d="M145.15 261.75C145 255.525 139.9 250.5 133.6 250.5C127.3 250.5 122.2 255.525 122.05 261.75C122.05 261.825 122.05 261.975 122.05 262.05C122.05 262.125 122.05 262.275 122.05 262.35C122.2 263.925 123.325 265.5 125.425 266.775C129.925 269.4 137.275 269.4 141.775 266.775C143.875 265.575 145 264 145.15 262.35C145.15 262.275 145.15 262.125 145.15 262.05C145.15 261.975 145.15 261.9 145.15 261.75Z" fill="white"/>
<path opacity="0.3" d="M138.625 251.7C137.125 250.95 135.4 250.575 133.6 250.575C127.3 250.575 122.2 255.6 122.05 261.825C122.05 261.9 122.05 262.05 122.05 262.125C122.05 262.2 122.05 262.35 122.05 262.425C122.2 264 123.325 265.575 125.425 266.85C127.075 267.825 129.1 268.425 131.2 268.65C128.2 268.125 126.25 264.825 127.225 261.075C128.275 256.8 132.625 250.575 138.625 251.7Z" fill="white"/>
<path opacity="0.1" d="M145.15 262.425C145.15 262.35 145.15 262.2 145.15 262.125C145.15 262.05 145.15 261.9 145.15 261.825C145.075 258.525 143.575 255.525 141.25 253.5C142.525 254.775 145.3 259.65 142.225 263.325C140.2 265.725 130.75 269.25 122.95 264.75C123.55 265.5 124.3 266.175 125.425 266.85C129.925 269.475 137.275 269.475 141.775 266.85C143.875 265.575 145 264 145.15 262.425Z" fill="#1F92CC"/>
<path opacity="0.3" d="M131.25 256.684C132.995 255.918 133.99 254.344 133.474 253.168C132.958 251.992 131.125 251.66 129.38 252.426C127.636 253.192 126.64 254.767 127.156 255.942C127.673 257.118 129.505 257.45 131.25 256.684Z" fill="white"/>
<path opacity="0.3" d="M125.911 259.622C126.669 259.289 127.068 258.527 126.802 257.92C126.535 257.313 125.704 257.091 124.946 257.424C124.187 257.757 123.789 258.519 124.055 259.126C124.322 259.733 125.152 259.955 125.911 259.622Z" fill="white"/>
<path d="M223.525 250.575C223.45 247.575 220.975 245.175 217.975 245.175C214.975 245.175 212.5 247.575 212.425 250.575C212.425 250.65 212.425 250.65 212.425 250.725C212.425 250.8 212.425 250.8 212.425 250.875C212.5 251.625 213.025 252.375 214.075 252.975C216.25 254.25 219.775 254.25 221.95 252.975C223 252.375 223.525 251.625 223.6 250.875C223.6 250.8 223.6 250.8 223.6 250.725C223.6 250.65 223.6 250.575 223.525 250.575Z" fill="#1F92CC"/>
<path opacity="0.2" d="M223.525 250.575C223.45 247.575 220.975 245.175 217.975 245.175C214.975 245.175 212.5 247.575 212.425 250.575C212.425 250.65 212.425 250.65 212.425 250.725C212.425 250.8 212.425 250.8 212.425 250.875C212.5 251.625 213.025 252.375 214.075 252.975C216.25 254.25 219.775 254.25 221.95 252.975C223 252.375 223.525 251.625 223.6 250.875C223.6 250.8 223.6 250.8 223.6 250.725C223.6 250.65 223.6 250.575 223.525 250.575Z" fill="white"/>
<path opacity="0.5" d="M220.45 245.7C219.7 245.325 218.875 245.175 218.05 245.175C215.05 245.175 212.575 247.575 212.5 250.575C212.5 250.65 212.5 250.65 212.5 250.725C212.5 250.8 212.5 250.8 212.5 250.875C212.575 251.625 213.1 252.375 214.15 252.975C214.975 253.425 215.95 253.725 216.925 253.875C215.5 253.65 214.525 252 214.975 250.275C215.425 248.175 217.525 245.175 220.45 245.7Z" fill="white"/>
<path opacity="0.05" d="M223.525 250.875C223.525 250.8 223.525 250.8 223.525 250.725C223.525 250.65 223.525 250.65 223.525 250.575C223.45 249 222.775 247.575 221.65 246.525C222.25 247.125 223.6 249.45 222.1 251.25C221.125 252.45 216.55 254.1 212.8 251.925C213.1 252.3 213.475 252.6 214 252.9C216.175 254.175 219.7 254.175 221.875 252.9C222.925 252.375 223.525 251.625 223.525 250.875Z" fill="#455A64"/>
<path opacity="0.3" d="M216.85 248.099C217.684 247.732 218.158 246.974 217.908 246.405C217.658 245.836 216.779 245.672 215.945 246.039C215.111 246.405 214.637 247.163 214.887 247.732C215.137 248.301 216.015 248.465 216.85 248.099Z" fill="white"/>
<path opacity="0.3" d="M214.32 249.553C214.7 249.387 214.899 249.006 214.766 248.703C214.633 248.399 214.217 248.288 213.838 248.455C213.459 248.621 213.259 249.002 213.392 249.306C213.526 249.609 213.941 249.72 214.32 249.553Z" fill="white"/>
<path d="M32.875 243.675C33.025 238.725 37.075 234.75 42.1 234.75C47.125 234.75 51.175 238.725 51.325 243.675C51.325 243.75 51.325 243.825 51.325 243.9C51.325 243.975 51.325 244.05 51.325 244.125C51.25 245.4 50.35 246.675 48.625 247.65C45.025 249.75 39.175 249.75 35.575 247.65C33.925 246.675 33.025 245.4 32.875 244.125C32.875 244.05 32.875 243.975 32.875 243.9C32.875 243.9 32.875 243.825 32.875 243.675Z" fill="#1F92CC"/>
<path opacity="0.5" d="M32.875 243.675C33.025 238.725 37.075 234.75 42.1 234.75C47.125 234.75 51.175 238.725 51.325 243.675C51.325 243.75 51.325 243.825 51.325 243.9C51.325 243.975 51.325 244.05 51.325 244.125C51.25 245.4 50.35 246.675 48.625 247.65C45.025 249.75 39.175 249.75 35.575 247.65C33.925 246.675 33.025 245.4 32.875 244.125C32.875 244.05 32.875 243.975 32.875 243.9C32.875 243.9 32.875 243.825 32.875 243.675Z" fill="white"/>
<path opacity="0.5" d="M38.05 235.65C39.25 235.05 40.6 234.75 42.025 234.75C47.05 234.75 51.1 238.725 51.25 243.675C51.25 243.75 51.25 243.825 51.25 243.9C51.25 243.975 51.25 244.05 51.25 244.125C51.175 245.4 50.275 246.675 48.55 247.65C47.275 248.4 45.625 248.85 43.9 249.075C46.3 248.7 47.8 246 47.125 243.075C46.3 239.7 42.85 234.825 38.05 235.65Z" fill="white"/>
<path opacity="0.2" d="M32.875 244.2C32.875 244.125 32.875 244.05 32.875 243.975C32.875 243.9 32.875 243.825 32.875 243.75C32.95 241.125 34.15 238.725 36.025 237.075C35.05 238.125 32.8 241.95 35.2 244.95C36.775 246.9 44.35 249.675 50.5 246.075C50.05 246.675 49.375 247.275 48.55 247.725C44.95 249.825 39.1 249.825 35.5 247.725C33.85 246.75 32.95 245.475 32.875 244.2Z" fill="#1F92CC"/>
<path opacity="0.3" d="M45.4053 236.25C44.0021 235.633 42.527 235.902 42.1106 236.851C41.6942 237.799 42.4942 239.067 43.8974 239.683C45.3007 240.299 46.7758 240.03 47.1922 239.082C47.6086 238.134 46.8086 236.866 45.4053 236.25Z" fill="white"/>
<path opacity="0.3" d="M48.9581 240.229C48.3513 239.963 47.6838 240.146 47.4673 240.639C47.2508 241.132 47.5672 241.748 48.174 242.015C48.7808 242.281 49.4482 242.097 49.6648 241.604C49.8813 241.111 49.5649 240.496 48.9581 240.229Z" fill="white"/>
<path d="M52.6001 247.2C52.7501 240 58.6751 234.225 65.9501 234.225C73.2251 234.225 79.0751 240 79.3001 247.2C79.3001 247.35 79.3001 247.425 79.3001 247.575C79.3001 247.725 79.3001 247.8 79.3001 247.95C79.1501 249.825 77.8751 251.625 75.4001 253.05C70.2251 256.05 61.7501 256.05 56.5001 253.05C54.0251 251.625 52.7501 249.825 52.6001 247.95C52.6001 247.8 52.6001 247.725 52.6001 247.575C52.6001 247.425 52.6001 247.35 52.6001 247.2Z" fill="#1F92CC"/>
<path opacity="0.7" d="M52.6001 247.2C52.7501 240 58.6751 234.225 65.9501 234.225C73.2251 234.225 79.0751 240 79.3001 247.2C79.3001 247.35 79.3001 247.425 79.3001 247.575C79.3001 247.725 79.3001 247.8 79.3001 247.95C79.1501 249.825 77.8751 251.625 75.4001 253.05C70.2251 256.05 61.7501 256.05 56.5001 253.05C54.0251 251.625 52.7501 249.825 52.6001 247.95C52.6001 247.8 52.6001 247.725 52.6001 247.575C52.6001 247.425 52.6001 247.35 52.6001 247.2Z" fill="white"/>
<path opacity="0.3" d="M60.1001 235.575C61.8251 234.75 63.7751 234.225 65.8751 234.225C73.1501 234.225 79.0001 240 79.2251 247.2C79.2251 247.35 79.2251 247.425 79.2251 247.575C79.2251 247.725 79.2251 247.8 79.2251 247.95C79.0751 249.825 77.8001 251.625 75.3251 253.05C73.4501 254.175 71.0501 254.85 68.6501 255.15C72.1001 254.55 74.3501 250.725 73.3001 246.45C72.0251 241.425 67.0751 234.3 60.1001 235.575Z" fill="white"/>
<path opacity="0.1" d="M52.6001 247.95C52.6001 247.8 52.6001 247.725 52.6001 247.575C52.6001 247.425 52.6001 247.35 52.6001 247.2C52.6751 243.375 54.4001 239.925 57.1001 237.525C55.6751 239.025 52.4501 244.65 55.9001 248.925C58.2251 251.775 69.1751 255.75 78.1751 250.575C77.5001 251.475 76.6001 252.225 75.3251 252.975C70.1501 255.975 61.6751 255.975 56.4251 252.975C54.0251 251.625 52.7501 249.825 52.6001 247.95Z" fill="#1F92CC"/>
<path opacity="0.5" d="M70.7845 236.343C68.7745 235.461 66.6589 235.852 66.0593 237.217C65.4597 238.582 66.6031 240.405 68.6132 241.288C70.6232 242.17 72.7388 241.779 73.3384 240.414C73.938 239.048 72.7946 237.226 70.7845 236.343Z" fill="white"/>
<path opacity="0.5" d="M75.9377 242.195C75.0654 241.812 74.1017 242.086 73.7853 242.806C73.4688 243.527 73.9194 244.421 74.7917 244.805C75.664 245.188 76.6276 244.914 76.9441 244.193C77.2605 243.473 76.81 242.578 75.9377 242.195Z" fill="white"/>
<path d="M40.825 255.075C40.975 248.25 46.5999 242.775 53.4999 242.775C60.3999 242.775 65.95 248.25 66.175 255.075C66.175 255.225 66.175 255.3 66.175 255.45C66.175 255.6 66.175 255.675 66.175 255.825C66.025 257.55 64.8249 259.275 62.4999 260.625C57.5499 263.475 49.525 263.475 44.575 260.625C42.25 259.275 41.0499 257.55 40.8999 255.825C40.8999 255.675 40.8999 255.6 40.8999 255.45C40.8249 255.3 40.825 255.15 40.825 255.075Z" fill="#1F92CC"/>
<path opacity="0.6" d="M40.825 255.075C40.975 248.25 46.5999 242.775 53.4999 242.775C60.3999 242.775 65.95 248.25 66.175 255.075C66.175 255.225 66.175 255.3 66.175 255.45C66.175 255.6 66.175 255.675 66.175 255.825C66.025 257.55 64.8249 259.275 62.4999 260.625C57.5499 263.475 49.525 263.475 44.575 260.625C42.25 259.275 41.0499 257.55 40.8999 255.825C40.8999 255.675 40.8999 255.6 40.8999 255.45C40.8249 255.3 40.825 255.15 40.825 255.075Z" fill="white"/>
<path opacity="0.5" d="M48.0249 243.975C49.6749 243.15 51.5499 242.7 53.4999 242.7C60.3999 242.7 65.9499 248.175 66.1749 255C66.1749 255.15 66.1749 255.225 66.1749 255.375C66.1749 255.525 66.1749 255.6 66.1749 255.75C66.0249 257.475 64.8249 259.2 62.4999 260.55C60.6999 261.6 58.4499 262.275 56.1249 262.5C59.4249 261.9 61.5249 258.3 60.5499 254.25C59.3499 249.6 54.5499 242.775 48.0249 243.975Z" fill="white"/>
<path opacity="0.15" d="M40.825 255.75C40.825 255.6 40.825 255.525 40.825 255.375C40.825 255.225 40.825 255.15 40.825 255C40.9 251.325 42.5499 248.1 45.0999 245.85C43.7499 247.275 40.6749 252.6 43.9749 256.65C46.1499 259.35 56.5749 263.175 65.1249 258.225C64.5249 259.05 63.625 259.8 62.425 260.475C57.475 263.325 49.4499 263.325 44.4999 260.475C42.1749 259.2 40.975 257.475 40.825 255.75Z" fill="#1F92CC"/>
<path opacity="0.3" d="M58.1018 244.734C56.2056 243.902 54.2093 244.272 53.643 245.561C53.0767 246.851 54.1548 248.571 56.0511 249.404C57.9474 250.237 59.9437 249.866 60.51 248.577C61.0763 247.287 59.9981 245.567 58.1018 244.734Z" fill="white"/>
<path opacity="0.3" d="M63.0014 250.28C62.1671 249.914 61.2477 250.17 60.9479 250.853C60.6481 251.535 61.0814 252.386 61.9158 252.752C62.7501 253.119 63.6695 252.862 63.9693 252.18C64.2691 251.497 63.8358 250.646 63.0014 250.28Z" fill="white"/>
<path d="M67.675 260.625C67.9 252.15 74.875 245.325 83.425 245.325C91.975 245.325 98.9501 252.15 99.1751 260.625C99.1751 260.775 99.1751 260.925 99.1751 261.075C99.1751 261.225 99.1751 261.375 99.1751 261.525C99.0251 263.7 97.45 265.8 94.6 267.525C88.45 271.05 78.475 271.05 72.325 267.525C69.475 265.875 67.9 263.7 67.75 261.525C67.75 261.375 67.75 261.225 67.75 261.075C67.675 260.925 67.675 260.775 67.675 260.625Z" fill="#1F92CC"/>
<path opacity="0.8" d="M67.675 260.625C67.9 252.15 74.875 245.325 83.425 245.325C91.975 245.325 98.9501 252.15 99.1751 260.625C99.1751 260.775 99.1751 260.925 99.1751 261.075C99.1751 261.225 99.1751 261.375 99.1751 261.525C99.0251 263.7 97.45 265.8 94.6 267.525C88.45 271.05 78.475 271.05 72.325 267.525C69.475 265.875 67.9 263.7 67.75 261.525C67.75 261.375 67.75 261.225 67.75 261.075C67.675 260.925 67.675 260.775 67.675 260.625Z" fill="white"/>
<path opacity="0.3" d="M76.6001 246.9C78.7001 245.925 80.9501 245.325 83.4251 245.325C91.9751 245.325 98.9501 252.15 99.1751 260.625C99.1751 260.775 99.1751 260.925 99.1751 261.075C99.1751 261.225 99.1751 261.375 99.1751 261.525C99.0251 263.7 97.4501 265.8 94.6001 267.525C92.3501 268.8 89.5751 269.625 86.7251 270C90.7751 269.325 93.4751 264.75 92.2001 259.725C90.6251 253.8 84.7751 245.4 76.6001 246.9Z" fill="white"/>
<path opacity="0.1" d="M67.675 261.45C67.675 261.3 67.675 261.15 67.675 261C67.675 260.85 67.675 260.7 67.675 260.55C67.825 256.05 69.85 252 73 249.225C71.275 250.95 67.525 257.625 71.65 262.65C74.35 265.95 87.25 270.675 97.825 264.6C97.075 265.65 95.95 266.55 94.525 267.45C88.375 270.975 78.4 270.975 72.25 267.45C69.4 265.8 67.9 263.625 67.675 261.45Z" fill="#1F92CC"/>
<path opacity="0.3" d="M89.1387 247.881C86.7494 246.832 84.2454 247.272 83.5458 248.865C82.8463 250.458 84.2161 252.6 86.6054 253.649C88.9947 254.699 91.4987 254.258 92.1983 252.665C92.8978 251.072 91.528 248.93 89.1387 247.881Z" fill="white"/>
<path opacity="0.3" d="M95.2033 254.676C94.1793 254.227 93.0522 254.538 92.6858 255.373C92.3193 256.207 92.8524 257.248 93.8764 257.698C94.9004 258.147 96.0275 257.836 96.3939 257.001C96.7604 256.167 96.2273 255.126 95.2033 254.676Z" fill="white"/>
<path d="M151.9 270.975C151.675 263.25 145.375 257.025 137.575 257.025C129.775 257.025 123.4 263.25 123.25 270.975C123.25 271.125 123.25 271.2 123.25 271.35C123.25 271.5 123.25 271.575 123.25 271.725C123.4 273.675 124.825 275.625 127.45 277.2C133.075 280.425 142.15 280.425 147.775 277.2C150.4 275.7 151.825 273.75 151.975 271.725C151.975 271.575 151.975 271.5 151.975 271.35C151.975 271.275 151.975 271.125 151.9 270.975Z" fill="#1F92CC"/>
<path opacity="0.9" d="M151.9 270.975C151.675 263.25 145.375 257.025 137.575 257.025C129.775 257.025 123.4 263.25 123.25 270.975C123.25 271.125 123.25 271.2 123.25 271.35C123.25 271.5 123.25 271.575 123.25 271.725C123.4 273.675 124.825 275.625 127.45 277.2C133.075 280.425 142.15 280.425 147.775 277.2C150.4 275.7 151.825 273.75 151.975 271.725C151.975 271.575 151.975 271.5 151.975 271.35C151.975 271.275 151.975 271.125 151.9 270.975Z" fill="white"/>
<path opacity="0.5" d="M143.8 258.45C141.925 257.55 139.825 257.025 137.575 257.025C129.775 257.025 123.4 263.25 123.25 270.975C123.25 271.125 123.25 271.2 123.25 271.35C123.25 271.5 123.25 271.575 123.25 271.725C123.4 273.675 124.825 275.625 127.45 277.2C129.475 278.4 132.025 279.15 134.65 279.45C130.9 278.775 128.5 274.65 129.625 270.075C130.975 264.825 136.375 257.1 143.8 258.45Z" fill="white"/>
<path opacity="0.1" d="M151.9 271.8C151.9 271.65 151.9 271.575 151.9 271.425C151.9 271.275 151.9 271.2 151.9 271.05C151.825 266.925 149.95 263.25 147.025 260.7C148.6 262.275 152.05 268.35 148.3 272.925C145.825 275.925 134.05 280.275 124.375 274.725C125.05 275.625 126.1 276.525 127.45 277.275C133.075 280.5 142.15 280.5 147.775 277.275C150.4 275.775 151.75 273.825 151.9 271.8Z" fill="#1F92CC"/>
<path opacity="0.5" d="M134.693 264.652C136.855 263.703 138.081 261.734 137.431 260.255C136.781 258.776 134.502 258.346 132.341 259.296C130.179 260.245 128.953 262.214 129.603 263.693C130.252 265.172 132.531 265.601 134.693 264.652Z" fill="white"/>
<path opacity="0.5" d="M128.07 268.356C129.018 267.939 129.517 266.987 129.184 266.228C128.851 265.47 127.812 265.192 126.864 265.609C125.916 266.025 125.417 266.978 125.75 267.736C126.083 268.495 127.122 268.772 128.07 268.356Z" fill="white"/>
<path d="M92.05 272.55C92.275 265.2 98.275 259.275 105.7 259.275C113.125 259.275 119.125 265.2 119.35 272.55C119.35 272.7 119.35 272.775 119.35 272.925C119.35 273.075 119.35 273.15 119.35 273.3C119.2 275.175 117.85 277.05 115.375 278.475C110.05 281.55 101.425 281.55 96.1 278.475C93.625 277.05 92.275 275.175 92.125 273.3C92.125 273.15 92.125 273.075 92.125 272.925C91.975 272.85 91.975 272.7 92.05 272.55Z" fill="#1F92CC"/>
<path opacity="0.9" d="M92.05 272.55C92.275 265.2 98.275 259.275 105.7 259.275C113.125 259.275 119.125 265.2 119.35 272.55C119.35 272.7 119.35 272.775 119.35 272.925C119.35 273.075 119.35 273.15 119.35 273.3C119.2 275.175 117.85 277.05 115.375 278.475C110.05 281.55 101.425 281.55 96.1 278.475C93.625 277.05 92.275 275.175 92.125 273.3C92.125 273.15 92.125 273.075 92.125 272.925C91.975 272.85 91.975 272.7 92.05 272.55Z" fill="white"/>
<path opacity="0.5" d="M99.7 260.625C101.5 259.725 103.525 259.275 105.625 259.275C113.05 259.275 119.05 265.2 119.275 272.55C119.275 272.7 119.275 272.775 119.275 272.925C119.275 273.075 119.275 273.15 119.275 273.3C119.125 275.175 117.775 277.05 115.3 278.475C113.35 279.6 110.95 280.275 108.475 280.575C112 279.975 114.325 276 113.2 271.65C111.925 266.625 106.825 259.35 99.7 260.625Z" fill="white"/>
<path opacity="0.1" d="M92.05 273.3C92.05 273.15 92.05 273.075 92.05 272.925C92.05 272.775 92.05 272.7 92.05 272.55C92.125 268.65 93.925 265.125 96.7 262.65C95.2 264.15 91.9 269.925 95.5 274.275C97.825 277.125 109.075 281.25 118.225 276C117.55 276.9 116.575 277.725 115.3 278.475C109.975 281.55 101.35 281.55 96.025 278.475C93.475 277.05 92.2 275.25 92.05 273.3Z" fill="#1F92CC"/>
<path opacity="0.5" d="M110.637 261.463C108.589 260.563 106.429 260.972 105.813 262.375C105.197 263.778 106.357 265.645 108.405 266.544C110.453 267.444 112.613 267.035 113.229 265.632C113.846 264.229 112.685 262.362 110.637 261.463Z" fill="white"/>
<path opacity="0.5" d="M115.9 267.44C115.028 267.057 114.064 267.33 113.748 268.051C113.431 268.772 113.882 269.666 114.754 270.049C115.627 270.432 116.59 270.159 116.907 269.438C117.223 268.718 116.773 267.823 115.9 267.44Z" fill="white"/>
<path d="M127.45 277.35C127.375 274.35 124.9 271.95 121.9 271.95C118.9 271.95 116.425 274.35 116.35 277.35C116.35 277.425 116.35 277.425 116.35 277.5C116.35 277.575 116.35 277.575 116.35 277.65C116.425 278.4 116.95 279.15 118 279.75C120.175 281.025 123.7 281.025 125.875 279.75C126.925 279.15 127.45 278.4 127.525 277.65C127.525 277.575 127.525 277.575 127.525 277.5C127.45 277.425 127.45 277.425 127.45 277.35Z" fill="#1F92CC"/>
<path opacity="0.9" d="M127.45 277.35C127.375 274.35 124.9 271.95 121.9 271.95C118.9 271.95 116.425 274.35 116.35 277.35C116.35 277.425 116.35 277.425 116.35 277.5C116.35 277.575 116.35 277.575 116.35 277.65C116.425 278.4 116.95 279.15 118 279.75C120.175 281.025 123.7 281.025 125.875 279.75C126.925 279.15 127.45 278.4 127.525 277.65C127.525 277.575 127.525 277.575 127.525 277.5C127.45 277.425 127.45 277.425 127.45 277.35Z" fill="white"/>
<path opacity="0.6" d="M124.3 272.475C123.55 272.1 122.725 271.95 121.9 271.95C118.9 271.95 116.425 274.35 116.35 277.35C116.35 277.425 116.35 277.425 116.35 277.5C116.35 277.575 116.35 277.575 116.35 277.65C116.425 278.4 116.95 279.15 118 279.75C118.825 280.2 119.8 280.5 120.775 280.65C119.35 280.425 118.375 278.775 118.825 277.05C119.275 274.95 121.375 271.95 124.3 272.475Z" fill="white"/>
<path opacity="0.1" d="M127.45 277.65C127.45 277.575 127.45 277.575 127.45 277.5C127.45 277.425 127.45 277.425 127.45 277.35C127.375 275.775 126.7 274.35 125.575 273.3C126.175 273.9 127.525 276.225 126.025 278.025C125.05 279.225 120.475 280.875 116.725 278.7C117.025 279.075 117.4 279.375 117.925 279.675C120.1 280.95 123.625 280.95 125.8 279.675C126.775 279.15 127.375 278.4 127.45 277.65Z" fill="#1F92CC"/>
<path opacity="0.5" d="M120.701 274.867C121.535 274.501 122.009 273.742 121.759 273.173C121.509 272.605 120.631 272.44 119.796 272.807C118.962 273.173 118.488 273.932 118.738 274.5C118.988 275.069 119.867 275.233 120.701 274.867Z" fill="white"/>
<path opacity="0.5" d="M118.175 276.317C118.554 276.15 118.754 275.769 118.621 275.466C118.487 275.162 118.072 275.051 117.693 275.218C117.313 275.385 117.114 275.766 117.247 276.069C117.38 276.372 117.796 276.483 118.175 276.317Z" fill="white"/>
<path d="M25.075 245.85C25.15 242.85 27.625 240.45 30.625 240.45C33.625 240.45 36.1 242.85 36.175 245.85C36.175 245.925 36.175 245.925 36.175 246C36.175 246.075 36.175 246.075 36.175 246.15C36.1 246.9 35.575 247.65 34.525 248.25C32.35 249.525 28.825 249.525 26.65 248.25C25.6 247.65 25.075 246.9 25 246.15C25 246.075 25 246.075 25 246C25.075 245.925 25.075 245.925 25.075 245.85Z" fill="#1F92CC"/>
<path opacity="0.2" d="M25.075 245.85C25.15 242.85 27.625 240.45 30.625 240.45C33.625 240.45 36.1 242.85 36.175 245.85C36.175 245.925 36.175 245.925 36.175 246C36.175 246.075 36.175 246.075 36.175 246.15C36.1 246.9 35.575 247.65 34.525 248.25C32.35 249.525 28.825 249.525 26.65 248.25C25.6 247.65 25.075 246.9 25 246.15C25 246.075 25 246.075 25 246C25.075 245.925 25.075 245.925 25.075 245.85Z" fill="white"/>
<path opacity="0.5" d="M28.2251 240.975C28.9751 240.6 29.8001 240.45 30.6251 240.45C33.6251 240.45 36.1001 242.85 36.1751 245.85C36.1751 245.925 36.1751 245.925 36.1751 246C36.1751 246.075 36.1751 246.075 36.1751 246.15C36.1001 246.9 35.5751 247.65 34.5251 248.25C33.7001 248.7 32.7251 249 31.7501 249.15C33.1751 248.925 34.1501 247.275 33.7001 245.55C33.1751 243.45 31.0751 240.45 28.2251 240.975Z" fill="white"/>
<path opacity="0.05" d="M25.075 246.15C25.075 246.075 25.075 246.075 25.075 246C25.075 245.925 25.075 245.925 25.075 245.85C25.15 244.275 25.825 242.85 26.95 241.8C26.35 242.4 24.9999 244.725 26.4999 246.525C27.4749 247.725 32.05 249.375 35.8 247.2C35.5 247.575 35.1249 247.875 34.5999 248.175C32.4249 249.45 28.8999 249.45 26.7249 248.175C25.6749 247.725 25.15 246.975 25.075 246.15Z" fill="#455A64"/>
<path opacity="0.3" d="M32.6738 241.318C31.8394 240.951 30.9605 241.115 30.7107 241.684C30.4608 242.253 30.9347 243.011 31.769 243.378C32.6034 243.744 33.4823 243.58 33.7321 243.011C33.982 242.442 33.5081 241.684 32.6738 241.318Z" fill="white"/>
<path opacity="0.3" d="M34.8063 243.784C34.4271 243.618 34.0116 243.729 33.8784 244.032C33.7451 244.336 33.9445 244.717 34.3238 244.883C34.7031 245.05 35.1185 244.939 35.2518 244.635C35.385 244.332 35.1856 243.951 34.8063 243.784Z" fill="white"/>
<path d="M139.6 148.5L142.675 111.6L154.975 118.65C160.9 122.025 163.525 130.8 162.55 143.625L160.975 164.325L157.675 152.85C155.875 146.625 151.3 144.45 144.625 146.775L139.6 148.5Z" fill="#263238"/>
<path d="M103.075 148.5L100 111.6L87.7001 118.65C81.7751 122.025 79.1501 130.8 80.1251 143.625L81.7001 164.325L85.0001 152.85C86.8001 146.625 91.3751 144.45 98.0501 146.775L103.075 148.5Z" fill="#263238"/>
<path d="M139.525 166.35L137.2 156.15H105.475L103.15 166.35C102.55 169.425 104.275 172.65 108.4 174.975C115.525 179.1 127.075 179.1 134.2 174.975C138.4 172.65 140.125 169.425 139.525 166.35Z" fill="#37474F"/>
<path d="M110.05 163.95C103.825 160.35 103.825 154.5 110.05 150.9C116.275 147.3 126.4 147.3 132.7 150.9C138.925 154.5 138.925 160.35 132.7 163.95C126.4 167.55 116.275 167.55 110.05 163.95Z" fill="#455A64"/>
<path d="M103.225 166.35C102.625 169.425 104.35 172.65 108.475 174.975C115.6 179.1 127.15 179.1 134.275 174.975C138.4 172.575 140.125 169.425 139.525 166.35L138.85 163.425C139.45 166.2 137.875 169.2 134.125 171.375C127.075 175.425 115.675 175.425 108.625 171.375C104.8 169.2 103.225 166.2 103.9 163.425L103.225 166.35Z" fill="#263238"/>
<path d="M104.65 159.975C104.05 162.75 105.55 165.6 109.225 167.775C115.9 171.6 126.775 171.6 133.45 167.775C137.125 165.675 138.625 162.75 138.025 160.05L137.125 156.225C137.8 159 136.225 161.85 132.55 164.025C126.325 167.625 116.2 167.625 109.9 164.025C106.225 161.925 104.725 159 105.325 156.225L104.65 159.975Z" fill="#263238"/>
<path opacity="0.1" d="M133.225 156.15H130.825C131.65 159.6 133.75 168.75 133.975 170.85C134.35 173.475 128.575 177.825 113.5 177C120.325 178.875 128.65 178.2 134.275 174.975C135.85 174.075 137.05 173.025 137.95 171.9L133.225 156.15Z" fill="white"/>
<path d="M110.05 163.95C103.825 160.35 103.825 154.5 110.05 150.9C116.275 147.3 126.4 147.3 132.7 150.9C138.925 154.5 138.925 160.35 132.7 163.95C126.4 167.55 116.275 167.55 110.05 163.95Z" fill="#455A64"/>
<path d="M153.25 82.425C153.25 42.975 136.6 8.85 124.15 0.975002C124.075 0.900002 123.925 0.825 123.85 0.75C123.85 0.75 123.775 0.750001 123.775 0.675001C123.1 0.300001 122.275 0 121.375 0C120.475 0 119.65 0.225001 118.975 0.675001C118.975 0.675001 118.9 0.675 118.9 0.75C118.75 0.825 118.675 0.900002 118.6 0.975002C106.225 8.85 89.5 42.975 89.5 82.425C89.5 120.375 100.15 154.05 101.125 157.2C101.125 157.275 101.2 157.35 101.2 157.425C101.95 159.6 103.825 161.7 106.825 163.425C114.85 168.075 127.825 168.075 135.85 163.425C138.925 161.625 140.8 159.45 141.55 157.2C142.6 154.05 153.25 120.375 153.25 82.425Z" fill="#1F92CC"/>
<path d="M133.225 10.5C130.15 6.07499 127 2.84999 124.15 1.04999C124.075 0.974994 123.925 0.899995 123.85 0.824995H123.775C123.1 0.449995 122.275 0.149994 121.375 0.149994C120.475 0.149994 119.65 0.374995 118.975 0.824995C118.975 0.824995 118.975 0.824995 118.9 0.824995C118.75 0.899995 118.675 0.974994 118.6 1.04999C115.75 2.92499 112.6 6.14999 109.525 10.575C107.725 13.125 105.925 16.125 104.2 19.425C104.725 21.45 106.375 23.4 109.075 24.975C115.9 28.875 126.85 28.875 133.675 24.975C136.375 23.4 138.025 21.45 138.55 19.425C136.825 16.05 135.025 13.05 133.225 10.5Z" fill="#455A64"/>
<path opacity="0.15" d="M89.5 82.425C89.5 120.375 100.15 154.05 101.125 157.2C101.125 157.275 101.2 157.35 101.2 157.425C101.95 159.6 103.825 161.7 106.825 163.425C108.175 164.175 109.675 164.85 111.325 165.375C106.15 146.7 100.075 115.05 100.075 83.4C100.075 39.675 110.875 8.70001 118.6 0.975006C106.15 8.92501 89.5 42.975 89.5 82.425Z" fill="black"/>
<path opacity="0.35" d="M153.25 82.425C153.25 120.375 142.6 154.05 141.625 157.2C141.625 157.275 141.55 157.35 141.55 157.425C140.8 159.6 138.925 161.7 135.925 163.425C141.925 141.45 148.825 114.975 148.825 83.4C148.825 39.675 132.025 8.70001 124.225 0.975006C136.525 8.92501 153.25 42.975 153.25 82.425Z" fill="white"/>
<path d="M157.225 138.075L145.675 116.85L142.6 118.575L137.275 152.025L142.3 156.075C148.9 161.4 153.55 168.9 155.35 177.225L158.65 192.525C158.65 192.525 160.075 182.775 161.725 171.075C163.15 160.425 163.15 148.275 157.225 138.075Z" fill="#455A64"/>
<path d="M137.35 152.025L142.675 118.575L154.225 139.8C160.15 150 161.275 161.775 160.3 173.55L158.725 192.45L155.425 177.15C153.625 168.825 149.05 161.4 142.375 156L137.35 152.025Z" fill="#37474F"/>
<path d="M85.45 138.075L97 116.85L100.075 118.575L105.4 152.025L100.375 156.075C93.775 161.4 89.125 168.9 87.325 177.225L84.025 192.525C84.025 192.525 82.6 182.775 80.95 171.075C79.525 160.425 79.525 148.275 85.45 138.075Z" fill="#455A64"/>
<path d="M105.325 152.025L100 118.575L88.4501 139.8C82.5251 150 81.4001 161.775 82.3751 173.55L83.9501 192.45L87.2501 177.15C89.0501 168.825 93.6251 161.4 100.3 156L105.325 152.025Z" fill="#37474F"/>
<path d="M121.375 75.375C129.079 75.375 135.325 69.1294 135.325 61.425C135.325 53.7206 129.079 47.475 121.375 47.475C113.671 47.475 107.425 53.7206 107.425 61.425C107.425 69.1294 113.671 75.375 121.375 75.375Z" fill="#37474F"/>
<path d="M121.375 72.525C127.506 72.525 132.475 67.5554 132.475 61.425C132.475 55.2946 127.506 50.325 121.375 50.325C115.245 50.325 110.275 55.2946 110.275 61.425C110.275 67.5554 115.245 72.525 121.375 72.525Z" fill="#1F92CC"/>
<path opacity="0.7" d="M121.375 72.525C127.506 72.525 132.475 67.5554 132.475 61.425C132.475 55.2946 127.506 50.325 121.375 50.325C115.245 50.325 110.275 55.2946 110.275 61.425C110.275 67.5554 115.245 72.525 121.375 72.525Z" fill="white"/>
<path d="M121.375 104.85C126.884 104.85 131.35 100.384 131.35 94.875C131.35 89.366 126.884 84.9 121.375 84.9C115.866 84.9 111.4 89.366 111.4 94.875C111.4 100.384 115.866 104.85 121.375 104.85Z" fill="#37474F"/>
<path d="M121.375 102.15C125.393 102.15 128.65 98.8929 128.65 94.875C128.65 90.8571 125.393 87.6 121.375 87.6C117.357 87.6 114.1 90.8571 114.1 94.875C114.1 98.8929 117.357 102.15 121.375 102.15Z" fill="#1F92CC"/>
<path opacity="0.7" d="M121.375 102.15C125.393 102.15 128.65 98.8929 128.65 94.875C128.65 90.8571 125.393 87.6 121.375 87.6C117.357 87.6 114.1 90.8571 114.1 94.875C114.1 98.8929 117.357 102.15 121.375 102.15Z" fill="white"/>
<path d="M77.8 53.25C77.8 53.475 77.5749 53.7 77.3499 53.625H76.8999C75.6999 53.55 74.7249 54.375 74.4999 55.5L74.425 55.95C74.35 56.175 74.1249 56.325 73.8999 56.325C73.6749 56.325 73.4499 56.1 73.5249 55.875V55.425C73.5999 54.225 72.7749 53.25 71.6499 53.025L71.2 52.95C70.975 52.875 70.825 52.65 70.825 52.425C70.825 52.2 71.0499 51.975 71.2749 52.05H71.7249C72.9249 52.125 73.8999 51.3 74.1249 50.175L74.2 49.725C74.275 49.5 74.4999 49.35 74.7249 49.35C74.9499 49.35 75.1749 49.575 75.0999 49.8V50.25C75.0249 51.45 75.8499 52.425 76.9749 52.65L77.425 52.725C77.65 52.8 77.8 53.025 77.8 53.25ZM74.1249 54C74.4999 53.55 74.9499 53.175 75.4749 52.95C75.0249 52.575 74.65 52.125 74.425 51.6C74.05 52.05 73.6 52.425 73.075 52.65C73.525 53.025 73.8999 53.475 74.1249 54Z" fill="#27DEBF"/>
<path d="M66.625 28.425C66.4 30.075 64.975 31.2 63.325 30.975C61.675 30.75 60.55 29.325 60.775 27.675C61 26.025 62.425 24.9 64.075 25.125C65.65 25.35 66.85 26.85 66.625 28.425ZM61.675 27.825C61.525 28.95 62.35 29.925 63.475 30.075C64.6 30.225 65.575 29.4 65.725 28.275C65.875 27.15 65.05 26.175 63.925 26.025C62.8 25.95 61.825 26.775 61.675 27.825Z" fill="#27DEBF"/>
<path d="M88.9001 17.85C88.9001 18.075 88.6751 18.3 88.3751 18.225L86.8751 18.075C86.6501 18.075 86.4251 17.85 86.5001 17.55C86.5001 17.325 86.7251 17.1 87.0251 17.175L88.5251 17.325C88.7501 17.4 88.9001 17.625 88.9001 17.85Z" fill="#27DEBF"/>
<path d="M89.6502 18.9L89.5002 20.4C89.5002 20.625 89.2752 20.85 88.9752 20.775C88.7502 20.775 88.5252 20.55 88.6002 20.25L88.7502 18.75C88.7502 18.525 88.9752 18.3 89.2752 18.375C89.5002 18.375 89.7252 18.6 89.6502 18.9Z" fill="#27DEBF"/>
<path d="M92.35 18.3C92.35 18.525 92.125 18.75 91.825 18.675L90.325 18.525C90.1 18.525 89.875 18.3 89.95 18C89.95 17.775 90.175 17.55 90.475 17.625L91.975 17.775C92.2 17.775 92.35 18 92.35 18.3Z" fill="#27DEBF"/>
<path d="M90.1001 15.45L89.9501 16.95C89.9501 17.175 89.7251 17.4 89.4251 17.325C89.2001 17.325 88.9751 17.1 89.0501 16.8L89.2001 15.3C89.2001 15.075 89.4251 14.85 89.7251 14.925C89.9501 14.925 90.1001 15.15 90.1001 15.45Z" fill="#27DEBF"/>
<path d="M168.625 52.875C168.85 52.95 169 53.25 168.925 53.475L168.775 53.925C168.4 55.05 168.85 56.25 169.9 56.775L170.275 57C170.5 57.075 170.575 57.375 170.5 57.6C170.425 57.825 170.125 57.9 169.9 57.825L169.45 57.675C168.325 57.3 167.125 57.75 166.6 58.8L166.375 59.175C166.3 59.4 166 59.475 165.775 59.4C165.55 59.325 165.475 59.025 165.55 58.8L165.7 58.35C166.075 57.225 165.625 56.025 164.575 55.5L164.2 55.275C163.975 55.2 163.9 54.9 163.975 54.675C164.05 54.45 164.35 54.375 164.575 54.45L165.025 54.6C166.15 54.975 167.35 54.525 167.875 53.475L168.1 53.1C168.175 52.875 168.4 52.8 168.625 52.875ZM168.325 56.625C167.95 56.175 167.8 55.65 167.725 55.05C167.275 55.425 166.75 55.575 166.15 55.65C166.525 56.1 166.675 56.625 166.75 57.225C167.2 56.85 167.8 56.625 168.325 56.625Z" fill="#27DEBF"/>
<path d="M158.125 24.45C158.65 24.675 159.175 25.05 159.55 25.575C160.45 26.925 160.075 28.8 158.65 29.7C157.3 30.6 155.425 30.225 154.525 28.8C153.625 27.45 154 25.575 155.425 24.675C156.325 24.15 157.3 24.075 158.125 24.45ZM156.325 29.1C156.4 29.175 156.55 29.175 156.625 29.175C157.15 29.325 157.675 29.175 158.125 28.875C158.575 28.575 158.875 28.125 159.025 27.6C159.175 27.075 159.025 26.55 158.725 26.1C158.125 25.125 156.85 24.9 155.875 25.5C154.9 26.1 154.675 27.375 155.275 28.35C155.65 28.65 155.95 28.95 156.325 29.1Z" fill="#27DEBF"/>
<path d="M182.125 32.925L183.55 33.525C183.775 33.6 183.925 33.9 183.775 34.125C183.7 34.35 183.4 34.5 183.175 34.35L181.75 33.75C181.525 33.675 181.375 33.375 181.525 33.15C181.6 32.925 181.9 32.775 182.125 32.925Z" fill="#27DEBF"/>
<path d="M182.2 30.3C182.425 30.375 182.575 30.675 182.425 30.9L181.825 32.325C181.75 32.55 181.45 32.7 181.225 32.55C181 32.475 180.85 32.175 181 31.95L181.6 30.525C181.675 30.3 181.975 30.15 182.2 30.3Z" fill="#27DEBF"/>
<path d="M178.9 31.575L180.325 32.175C180.55 32.25 180.7 32.55 180.55 32.775C180.475 33 180.175 33.075 179.95 33L178.525 32.4C178.3 32.325 178.15 32.025 178.3 31.8C178.375 31.575 178.675 31.5 178.9 31.575Z" fill="#27DEBF"/>
<path d="M180.85 33.45C180.85 33.525 180.85 33.525 180.85 33.45C181.075 33.525 181.225 33.825 181.075 34.05L180.475 35.475C180.4 35.7 180.1 35.85 179.875 35.7C179.65 35.625 179.5 35.325 179.65 35.1L180.25 33.675C180.4 33.525 180.625 33.375 180.85 33.45Z" fill="#27DEBF"/>
</svg>
