<svg width="35" height="35" viewBox="0 0 35 35" fill="none" xmlns="http://www.w3.org/2000/svg">
<path d="M35 3.0154V1.81214C35 0.812861 34.2059 0 33.2295 0H1.77051C0.794131 0 0 0.812861 0 1.81214V3.0154C0 3.81192 0.5075 4.48239 1.20688 4.725V17.0082C0.505723 17.2586 0 17.9224 0 18.7087V19.912C0 20.6983 0.505723 21.3621 1.20688 21.6125V34.3965C1.20688 34.7303 1.47725 35 1.81036 35H13.8793V24.7414C13.8793 24.4076 14.1497 24.1379 14.4828 24.1379H20.5173C20.8504 24.1379 21.1208 24.4076 21.1208 24.7414V35H33.1898C33.5229 35 33.7933 34.7303 33.7933 34.3965V21.6125C34.4943 21.3621 35 20.6983 35 19.912V18.7087C35 17.9225 34.4943 17.2586 33.7931 17.0082V4.725C34.4925 4.48239 35 3.81199 35 3.0154ZM11.4655 31.3793H10.862H4.82761H4.22413C3.89102 31.3793 3.62065 31.1096 3.62065 30.7759C3.62065 30.4421 3.89102 30.1724 4.22413 30.1724V24.7414C4.22413 24.4076 4.49449 24.1379 4.82761 24.1379H10.8621C11.1952 24.1379 11.4656 24.4076 11.4656 24.7414V30.1724C11.7987 30.1724 12.0691 30.4421 12.0691 30.7759C12.069 31.1096 11.7986 31.3793 11.4655 31.3793ZM30.7759 31.3793H30.1724H24.1379H23.5344C23.2013 31.3793 22.9309 31.1096 22.9309 30.7759C22.9309 30.4421 23.2013 30.1724 23.5344 30.1724V24.7414C23.5344 24.4076 23.8048 24.1379 24.1379 24.1379H30.1724C30.5055 24.1379 30.7759 24.4076 30.7759 24.7414V30.1724C31.109 30.1724 31.3793 30.4421 31.3793 30.7759C31.3793 31.1096 31.109 31.3793 30.7759 31.3793ZM33.7931 19.912C33.7931 20.2457 33.5216 20.5172 33.1885 20.5172H1.81152C1.47841 20.5172 1.20688 20.2457 1.20688 19.912V18.7087C1.20688 18.375 1.47841 18.1035 1.81152 18.1035H33.1885C33.5216 18.1035 33.7931 18.375 33.7931 18.7087V19.912ZM12.069 13.8793C12.069 14.2131 11.7986 14.4828 11.4655 14.4828H10.862H4.82761H4.22413C3.89102 14.4828 3.62065 14.2131 3.62065 13.8793C3.62065 13.5456 3.89102 13.2759 4.22413 13.2759V7.84485C4.22413 7.51112 4.49449 7.24138 4.82761 7.24138H10.8621C11.1952 7.24138 11.4656 7.51112 11.4656 7.84485V13.2759C11.7986 13.2759 12.069 13.5456 12.069 13.8793ZM21.7241 13.8793C21.7241 14.2131 21.4538 14.4828 21.1207 14.4828H20.5172H14.4827H13.8792C13.5461 14.4828 13.2757 14.2131 13.2757 13.8793C13.2757 13.5456 13.5461 13.2759 13.8792 13.2759V7.84485C13.8792 7.51112 14.1496 7.24138 14.4827 7.24138H20.5172C20.8503 7.24138 21.1207 7.51112 21.1207 7.84485V13.2759C21.4538 13.2759 21.7241 13.5456 21.7241 13.8793ZM31.3793 13.8793C31.3793 14.2131 31.1089 14.4828 30.7758 14.4828H30.1723H24.1378H23.5344C23.2012 14.4828 22.9309 14.2131 22.9309 13.8793C22.9309 13.5456 23.2012 13.2759 23.5344 13.2759V7.84485C23.5344 7.51112 23.8047 7.24138 24.1378 7.24138H30.1723C30.5054 7.24138 30.7758 7.51112 30.7758 7.84485V13.2759C31.109 13.2759 31.3793 13.5456 31.3793 13.8793ZM33.2295 3.62072H33.1896H1.81036H1.77051C1.45975 3.62072 1.20688 3.3492 1.20688 3.01547V1.81214C1.20688 1.47841 1.45975 1.20688 1.77051 1.20688H33.2295C33.5403 1.20688 33.7931 1.47841 33.7931 1.81214V3.0154C33.7931 3.34913 33.5403 3.62072 33.2295 3.62072Z" fill="#1F92CC"/>
<path d="M10.2586 8.44792H8.44824V10.2583H10.2586V8.44792Z" fill="#1F92CC"/>
<path d="M19.9139 8.44792H18.1035V10.2583H19.9139V8.44792Z" fill="#1F92CC"/>
<path d="M15.0862 10.2586H16.8965V9.09392C16.8953 9.07943 16.8881 9.06678 16.8881 9.05167C16.8881 9.03657 16.8953 9.02392 16.8965 9.00943V8.4482H15.0862V10.2586Z" fill="#1F92CC"/>
<path d="M16.8965 11.4652H15.0862V13.2755H16.8965V11.4652Z" fill="#1F92CC"/>
<path d="M7.24127 8.44792H5.43091V10.2583H7.24127V8.44792Z" fill="#1F92CC"/>
<path d="M10.2586 11.4652H8.44824V13.2755H10.2586V11.4652Z" fill="#1F92CC"/>
<path d="M7.24127 11.4652H5.43091V13.2755H7.24127V11.4652Z" fill="#1F92CC"/>
<path d="M29.5689 8.44792H27.7585V10.2583H29.5689V8.44792Z" fill="#1F92CC"/>
<path d="M29.5689 11.4652H27.7585V13.2755H29.5689V11.4652Z" fill="#1F92CC"/>
<path d="M26.5518 11.4652H24.7415V13.2755H26.5518V11.4652Z" fill="#1F92CC"/>
<path d="M19.9139 11.4652H18.1035V13.2755H19.9139V11.4652Z" fill="#1F92CC"/>
<path d="M26.5518 8.44792H24.7415V10.2583H26.5518V8.44792Z" fill="#1F92CC"/>
<path d="M7.24127 25.3444H5.43091V27.1548H7.24127V25.3444Z" fill="#1F92CC"/>
<path d="M7.24127 28.3617H5.43091V30.1721H7.24127V28.3617Z" fill="#1F92CC"/>
<path d="M10.2586 25.3444H8.44824V27.1548H10.2586V25.3444Z" fill="#1F92CC"/>
<path d="M29.5689 25.3444H27.7585V27.1548H29.5689V25.3444Z" fill="#1F92CC"/>
<path d="M15.0862 34.9999H19.9138V25.3448H15.0862V34.9999ZM18.1034 28.9654H18.7069C19.04 28.9654 19.3104 29.2352 19.3104 29.5689C19.3104 29.9026 19.04 30.1724 18.7069 30.1724H18.1034C17.7703 30.1724 17.5 29.9026 17.5 29.5689C17.5 29.2352 17.7703 28.9654 18.1034 28.9654Z" fill="#1F92CC"/>
<path d="M10.2586 28.3617H8.44824V30.1721H10.2586V28.3617Z" fill="#1F92CC"/>
<path d="M29.5689 28.3617H27.7585V30.1721H29.5689V28.3617Z" fill="#1F92CC"/>
<path d="M26.5518 28.3617H24.7415V30.1721H26.5518V28.3617Z" fill="#1F92CC"/>
<path d="M26.5518 25.3444H24.7415V27.1548H26.5518V25.3444Z" fill="#1F92CC"/>
</svg>
