<svg width="40" height="40" viewBox="0 0 40 40" fill="none" xmlns="http://www.w3.org/2000/svg">
<rect width="40" height="40" rx="10" fill="#00AAC9"/>
<path d="M22.45 21.72C22.04 21.7333 21.69 21.7667 21.4 21.82C21.1133 21.87 20.8783 21.9367 20.695 22.02C20.515 22.1033 20.3833 22.2017 20.3 22.315C20.22 22.4283 20.18 22.555 20.18 22.695C20.18 22.8283 20.2017 22.9433 20.245 23.04C20.2883 23.1367 20.3467 23.2167 20.42 23.28C20.4967 23.34 20.585 23.385 20.685 23.415C20.7883 23.4417 20.8983 23.455 21.015 23.455C21.1717 23.455 21.315 23.44 21.445 23.41C21.575 23.3767 21.6967 23.33 21.81 23.27C21.9267 23.21 22.0367 23.1383 22.14 23.055C22.2467 22.9717 22.35 22.8767 22.45 22.77V21.72ZM19.575 19.65C19.855 19.38 20.1567 19.1783 20.48 19.045C20.8033 18.9117 21.1617 18.845 21.555 18.845C21.8383 18.845 22.09 18.8917 22.31 18.985C22.53 19.0783 22.715 19.2083 22.865 19.375C23.015 19.5417 23.1283 19.7433 23.205 19.98C23.2817 20.2167 23.32 20.4767 23.32 20.76V24H22.925C22.8383 24 22.7717 23.9867 22.725 23.96C22.6783 23.93 22.6417 23.8733 22.615 23.79L22.515 23.31C22.3817 23.4333 22.2517 23.5433 22.125 23.64C21.9983 23.7333 21.865 23.8133 21.725 23.88C21.585 23.9433 21.435 23.9917 21.275 24.025C21.1183 24.0617 20.9433 24.08 20.75 24.08C20.5533 24.08 20.3683 24.0533 20.195 24C20.0217 23.9433 19.87 23.86 19.74 23.75C19.6133 23.64 19.5117 23.5017 19.435 23.335C19.3617 23.165 19.325 22.965 19.325 22.735C19.325 22.535 19.38 22.3433 19.49 22.16C19.6 21.9733 19.7783 21.8083 20.025 21.665C20.2717 21.5217 20.5933 21.405 20.99 21.315C21.3867 21.2217 21.8733 21.1683 22.45 21.155V20.76C22.45 20.3667 22.365 20.07 22.195 19.87C22.025 19.6667 21.7767 19.565 21.45 19.565C21.23 19.565 21.045 19.5933 20.895 19.65C20.7483 19.7033 20.62 19.765 20.51 19.835C20.4033 19.9017 20.31 19.9633 20.23 20.02C20.1533 20.0733 20.0767 20.1 20 20.1C19.94 20.1 19.8883 20.085 19.845 20.055C19.8017 20.0217 19.765 19.9817 19.735 19.935L19.575 19.65ZM27.6257 19.77C27.5857 19.8433 27.524 19.88 27.4407 19.88C27.3907 19.88 27.334 19.8617 27.2707 19.825C27.2074 19.7883 27.129 19.7483 27.0357 19.705C26.9457 19.6583 26.8374 19.6167 26.7107 19.58C26.584 19.54 26.434 19.52 26.2607 19.52C26.1107 19.52 25.9757 19.54 25.8557 19.58C25.7357 19.6167 25.6324 19.6683 25.5457 19.735C25.4624 19.8017 25.3974 19.88 25.3507 19.97C25.3074 20.0567 25.2857 20.1517 25.2857 20.255C25.2857 20.385 25.3224 20.4933 25.3957 20.58C25.4724 20.6667 25.5724 20.7417 25.6957 20.805C25.819 20.8683 25.959 20.925 26.1157 20.975C26.2724 21.0217 26.4324 21.0733 26.5957 21.13C26.7624 21.1833 26.924 21.2433 27.0807 21.31C27.2374 21.3767 27.3774 21.46 27.5007 21.56C27.624 21.66 27.7224 21.7833 27.7957 21.93C27.8724 22.0733 27.9107 22.2467 27.9107 22.45C27.9107 22.6833 27.869 22.9 27.7857 23.1C27.7024 23.2967 27.579 23.4683 27.4157 23.615C27.2524 23.7583 27.0524 23.8717 26.8157 23.955C26.579 24.0383 26.3057 24.08 25.9957 24.08C25.6424 24.08 25.3224 24.0233 25.0357 23.91C24.749 23.7933 24.5057 23.645 24.3057 23.465L24.5157 23.125C24.5424 23.0817 24.574 23.0483 24.6107 23.025C24.6474 23.0017 24.694 22.99 24.7507 22.99C24.8107 22.99 24.874 23.0133 24.9407 23.06C25.0074 23.1067 25.0874 23.1583 25.1807 23.215C25.2774 23.2717 25.394 23.3233 25.5307 23.37C25.6674 23.4167 25.8374 23.44 26.0407 23.44C26.214 23.44 26.3657 23.4183 26.4957 23.375C26.6257 23.3283 26.734 23.2667 26.8207 23.19C26.9074 23.1133 26.9707 23.025 27.0107 22.925C27.054 22.825 27.0757 22.7183 27.0757 22.605C27.0757 22.465 27.0374 22.35 26.9607 22.26C26.8874 22.1667 26.789 22.0883 26.6657 22.025C26.5424 21.9583 26.4007 21.9017 26.2407 21.855C26.084 21.805 25.9224 21.7533 25.7557 21.7C25.5924 21.6467 25.4307 21.5867 25.2707 21.52C25.114 21.45 24.974 21.3633 24.8507 21.26C24.7274 21.1567 24.6274 21.03 24.5507 20.88C24.4774 20.7267 24.4407 20.5417 24.4407 20.325C24.4407 20.1317 24.4807 19.9467 24.5607 19.77C24.6407 19.59 24.7574 19.4333 24.9107 19.3C25.064 19.1633 25.2524 19.055 25.4757 18.975C25.699 18.895 25.954 18.855 26.2407 18.855C26.574 18.855 26.8724 18.9083 27.1357 19.015C27.4024 19.1183 27.6324 19.2617 27.8257 19.445L27.6257 19.77ZM29.8969 19.61C30.1135 19.38 30.3535 19.1967 30.6169 19.06C30.8802 18.9233 31.1835 18.855 31.5269 18.855C31.8035 18.855 32.0469 18.9017 32.2569 18.995C32.4702 19.085 32.6469 19.215 32.7869 19.385C32.9302 19.5517 33.0385 19.7533 33.1119 19.99C33.1852 20.2267 33.2219 20.4883 33.2219 20.775V24H32.3269V20.775C32.3269 20.3917 32.2385 20.095 32.0619 19.885C31.8885 19.6717 31.6235 19.565 31.2669 19.565C31.0035 19.565 30.7569 19.6283 30.5269 19.755C30.3002 19.8817 30.0902 20.0533 29.8969 20.27V24H29.0019V16.635H29.8969V19.61Z" fill="white"/>
<path d="M15.5 20.8182L16.9242 19H17.9L16.4 21.0833L18.5 24H17.3462L15.5 21.3485V20.8182Z" fill="#FFF100"/>
<path d="M20.5 14.8183L19.0758 13.0001H18.1L19.6 15.0835L17.5 18.0001H18.6538L20.5 15.3486V14.8183Z" fill="#FFF100"/>
<path d="M22.5 14.8183L21.0758 13.0001H20.1L21.6 15.0835L19.5 18.0001H20.6538L22.5 15.3486V14.8183Z" fill="#FFF100"/>
<path d="M15.385 24H14.415V16.835H15.385V24Z" fill="white"/>
<path d="M10.76 17.65H8.44V24H7.475V17.65H5.15V16.835H10.76V17.65ZM10.9277 20.625H13.3977V21.38H10.9277V20.625Z" fill="white"/>
</svg>
