<svg width="50" height="50" viewBox="0 0 50 50" fill="none" xmlns="http://www.w3.org/2000/svg">
<circle cx="25" cy="25" r="25" fill="#D45450"/>
<g clip-path="url(#clip0_220_2718)">
<path d="M35.1283 25.7233C31.0948 24.4435 29.4181 22.8519 29.4181 22.8519L29.2831 22.9769C28.0853 24.0721 26.7605 24.716 25.5537 24.716H25.4398C24.233 24.716 22.9082 24.0721 21.7104 22.9769L21.5753 22.8519C21.5753 22.8519 19.8988 24.4434 15.8653 25.7233C9.91106 27.884 11.6989 36.6773 11.6972 36.7454C11.8847 37.7248 11.994 38.0614 12.0892 38.0991C18.0686 40.6851 32.925 40.6851 38.9044 38.0991C38.9997 38.0614 39.109 37.7248 39.2965 36.7454C39.2948 36.6773 41.1065 27.9189 35.1283 25.7233Z" fill="white"/>
<path d="M31.7498 14.5052L31.6999 14.4526C31.3649 14.1546 31.3911 14.1717 31.3911 14.1717C31.3911 14.1717 31.9754 11.3074 31.5068 9.95295C30.7712 7.78981 26.3772 6.34002 25.4958 6.17151C25.496 6.1699 24.9598 6.06568 24.9256 6.06547C24.9256 6.06547 24.2324 5.92931 23.4289 6.26974C22.9056 6.4653 20.17 7.67038 19.3936 9.95295C18.9251 11.3074 19.5094 14.1717 19.5094 14.1717C19.5094 14.1717 19.5356 14.1546 19.2005 14.4526L19.1506 14.5052C18.924 14.7552 18.98 15.5374 19.2277 16.3513C19.4522 17.1666 19.7448 17.3857 19.8149 17.5767C20.5257 20.8184 22.997 23.5862 25.5154 23.5862C28.0339 23.5862 30.3747 20.8184 31.0854 17.5767C31.1556 17.3858 31.4482 17.1666 31.6727 16.3513C31.9204 15.5374 31.9829 14.7015 31.7498 14.5052Z" fill="white"/>
</g>
<defs>
<clipPath id="clip0_220_2718">
<rect width="35" height="34" fill="white" transform="translate(8 6.03857)"/>
</clipPath>
</defs>
</svg>
