<svg width="70" height="70" viewBox="0 0 70 70" fill="none" xmlns="http://www.w3.org/2000/svg">
<rect width="70" height="70" rx="10" fill="#F99746"/>
<g clip-path="url(#clip0_238_3067)">
<path d="M19.0287 50.1874C19.0276 49.8515 19.0263 50.0928 19.0287 50.1874V50.1874Z" fill="white"/>
<path d="M50.9521 49.7845C50.7955 40.1858 49.505 37.4507 39.6299 35.7194C39.6299 35.7194 38.2398 37.3235 34.9998 37.3235C31.7598 37.3235 30.3695 35.7194 30.3695 35.7194C20.6021 37.4318 19.2331 40.1263 19.0531 49.4727C19.0383 50.2359 19.0315 50.276 19.0289 50.1874C19.0295 50.3534 19.0302 50.6604 19.0302 51.1958C19.0302 51.1958 21.3812 55.8 34.9998 55.8C48.6181 55.8 50.9694 51.1958 50.9694 51.1958C50.9694 50.8518 50.9696 50.6126 50.9701 50.4499C50.9674 50.5047 50.962 50.3985 50.9521 49.7845Z" fill="white"/>
<path d="M50.9703 50.4498C50.9738 50.3579 50.9713 49.8117 50.9703 50.4498V50.4498Z" fill="white"/>
<path d="M35 34.9539C36.6566 34.9539 38.2004 34.3897 39.5049 33.4183H48.9992C45.0636 30.1303 43.3154 27.6324 43.3154 22.1954C43.3154 18.9634 40.9489 15 35 15C29.0511 15 26.6843 18.9634 26.6843 22.1954C26.6843 27.6324 24.9364 30.1303 21.0005 33.4183H30.4948C31.7993 34.3897 33.3434 34.9539 35 34.9539Z" fill="white"/>
</g>
<defs>
<clipPath id="clip0_238_3067">
<rect width="42" height="40.8" fill="white" transform="translate(14 15)"/>
</clipPath>
</defs>
</svg>
