<svg width="60" height="60" viewBox="0 0 60 60" fill="none" xmlns="http://www.w3.org/2000/svg">
<rect width="60" height="60" rx="10" fill="#D45450"/>
<g clip-path="url(#clip0_161_704)">
<path d="M39.9033 33.1043C35.7546 31.7879 34.03 30.1509 34.03 30.1509L33.8911 30.2795C32.6591 31.406 31.2965 32.0682 30.0551 32.0682H29.938C28.6967 32.0682 27.3341 31.406 26.102 30.2795L25.9631 30.1509C25.9631 30.1509 24.2387 31.7878 20.0899 33.1043C13.9656 35.3267 15.8045 44.3713 15.8027 44.4414C15.9956 45.4487 16.108 45.7949 16.206 45.8337C22.3562 48.4935 37.6371 48.4935 43.7873 45.8337C43.8853 45.7949 43.9977 45.4487 44.1906 44.4414C44.1888 44.3713 46.0523 35.3626 39.9033 33.1043Z" fill="white"/>
<path d="M36.4284 21.5657L36.377 21.5116C36.0324 21.2051 36.0593 21.2226 36.0593 21.2226C36.0593 21.2226 36.6604 18.2766 36.1784 16.8834C35.4218 14.6584 30.9022 13.1672 29.9957 12.9939C29.9958 12.9923 29.4443 12.885 29.4091 12.8848C29.4091 12.8848 28.6961 12.7448 27.8697 13.0949C27.3315 13.2961 24.5177 14.5356 23.719 16.8834C23.2372 18.2766 23.8382 21.2226 23.8382 21.2226C23.8382 21.2226 23.8651 21.2051 23.5205 21.5116L23.4692 21.5657C23.2361 21.8228 23.2936 22.6274 23.5485 23.4645C23.7794 24.3032 24.0803 24.5285 24.1524 24.725C24.8835 28.0593 27.4254 30.9062 30.0158 30.9062C32.6062 30.9062 35.0139 28.0593 35.7449 24.725C35.8171 24.5286 36.1181 24.3032 36.349 23.4645C36.6038 22.6274 36.6681 21.7676 36.4284 21.5657Z" fill="white"/>
</g>
<defs>
<clipPath id="clip0_161_704">
<rect width="36" height="34.9714" fill="white" transform="translate(12 12.8571)"/>
</clipPath>
</defs>
</svg>
